<svg width="23" height="24" viewBox="0 0 23 24" fill="none" xmlns="http://www.w3.org/2000/svg">
<path d="M6.84668 11.9931L2.84004 11.459C2.05483 11.3519 1.3348 10.9646 0.812826 10.3682C0.290858 9.77196 0.00215673 9.007 0 8.21454V3.818C0.000433091 3.38415 0.172975 2.96819 0.47976 2.6614C0.786545 2.35462 1.20251 2.18208 1.63636 2.18164H4.90909C5.09158 2.18151 5.26887 2.24244 5.41272 2.35472C5.55658 2.46701 5.65873 2.6242 5.7029 2.80127L7.74836 10.9831C7.77844 11.1038 7.78067 11.2296 7.75485 11.3513C7.72903 11.4728 7.67584 11.587 7.59933 11.685C7.52282 11.783 7.42499 11.8623 7.31327 11.9168C7.20155 11.9713 7.07888 11.9997 6.95455 11.9998L6.84668 11.9931ZM1.63636 8.21454C1.63747 8.61074 1.78187 8.99316 2.0429 9.2912C2.30395 9.58925 2.664 9.7828 3.0566 9.83611L5.86829 10.2117L4.27029 3.818H1.63677L1.63636 8.21454Z" fill="#D1D1D1"/>
<path d="M15.1364 11.9998C15.0121 11.9998 14.8894 11.9716 14.7775 11.917C14.6657 11.8625 14.5679 11.7831 14.4914 11.685C14.4148 11.5869 14.3617 11.4727 14.336 11.351C14.3103 11.2293 14.3127 11.1033 14.343 10.9827L16.3885 2.80127C16.4323 2.62411 16.5343 2.4668 16.6782 2.35446C16.822 2.24213 16.9994 2.18128 17.1819 2.18164H20.4546C20.8885 2.18214 21.3044 2.3547 21.6112 2.66147C21.918 2.96824 22.0906 3.38417 22.091 3.81801V8.21454C22.0888 9.0069 21.8002 9.77176 21.2783 10.368C20.7564 10.9642 20.0365 11.3515 19.2514 11.4585L15.2307 11.9946L15.1364 11.9998ZM16.2223 10.2116L19.0348 9.83652C19.4273 9.78297 19.7873 9.58929 20.0482 9.29119C20.3091 8.9931 20.4535 8.61071 20.4546 8.21454V3.81801H17.8211L16.2223 10.2116Z" fill="#D1D1D1"/>
<path d="M17.7959 9.07084V1.36364C17.7948 1.20124 17.7298 1.04584 17.6149 0.931013C17.5 0.816184 17.3447 0.751161 17.1823 0.75H4.90957C4.7472 0.751195 4.59181 0.816229 4.47699 0.931051C4.36216 1.04587 4.29713 1.20125 4.29593 1.36364V9.07084C4.29135 10.4012 4.73182 11.6949 5.54724 12.7461C6.36266 13.7973 7.50621 14.5455 8.79593 14.8718V19.5682H6.57866C6.34217 19.5668 6.10908 19.6244 5.90049 19.7359C5.6919 19.8472 5.51441 20.009 5.38412 20.2064L4.836 21.0245C4.69316 21.2405 4.61148 21.4912 4.59962 21.75C4.58777 22.0088 4.64619 22.2658 4.76868 22.494C4.89117 22.7222 5.07315 22.913 5.29532 23.0461C5.51749 23.1792 5.77155 23.2497 6.03054 23.25H15.6196C15.9025 23.2488 16.1787 23.1638 16.4135 23.0059C16.6482 22.8479 16.8308 22.6239 16.9384 22.3623C17.0461 22.1007 17.0738 21.8131 17.0182 21.5356C16.9627 21.2583 16.8262 21.0036 16.626 20.8036L15.8078 19.9855C15.5401 19.7198 15.1787 19.5699 14.8015 19.5682H13.2959V14.8718C14.5857 14.5455 15.7292 13.7973 16.5446 12.7461C17.3601 11.6949 17.8005 10.4012 17.7959 9.07084ZM12.8134 7.90091L13.1898 9.42273C13.211 9.50365 13.2079 9.58906 13.1806 9.66819C13.1534 9.74732 13.1035 9.81663 13.0369 9.86738C12.9704 9.91813 12.8903 9.94806 12.8068 9.95337C12.7233 9.95869 12.64 9.93917 12.5677 9.89727L11.2586 9.15273C11.1949 9.1126 11.1212 9.09131 11.0459 9.09131C10.9706 9.09131 10.8969 9.1126 10.8332 9.15273L9.52423 9.8972C9.45181 9.9391 9.36861 9.95862 9.2851 9.9533C9.2016 9.94798 9.12154 9.91805 9.05501 9.86731C8.98849 9.81656 8.93848 9.74725 8.91129 9.66812C8.8841 9.58898 8.88094 9.50358 8.90221 9.42265L9.27875 7.90083C9.29895 7.82934 9.29974 7.75375 9.28102 7.68184C9.26231 7.60994 9.22477 7.54432 9.17228 7.49174L8.36228 6.68992C8.30291 6.63007 8.26258 6.55397 8.24636 6.47124C8.23013 6.38849 8.23875 6.30281 8.27113 6.22497C8.30351 6.14712 8.35818 6.08059 8.42829 6.03375C8.4984 5.98691 8.58078 5.96186 8.6651 5.96174H9.74515C9.82849 5.95897 9.90939 5.933 9.97877 5.88674C10.0482 5.8405 10.1032 5.77582 10.1379 5.69997L10.6533 4.48906C10.685 4.41103 10.7395 4.34424 10.8094 4.29723C10.8793 4.25023 10.9617 4.22511 11.046 4.22511C11.1302 4.22511 11.2126 4.25023 11.2825 4.29723C11.3526 4.34424 11.4069 4.41103 11.4387 4.48906L11.9541 5.69997C11.9887 5.77584 12.0439 5.84054 12.1132 5.88679C12.1826 5.93303 12.2636 5.95899 12.3469 5.96174H13.427C13.5114 5.96189 13.5937 5.98696 13.6638 6.03382C13.7339 6.08067 13.7886 6.14721 13.8208 6.22505C13.8532 6.30289 13.8618 6.38856 13.8456 6.47128C13.8294 6.55401 13.789 6.63008 13.7296 6.68992L12.9196 7.49174C12.8672 7.54435 12.8296 7.60997 12.811 7.6819C12.7922 7.75381 12.7931 7.82941 12.8134 7.90091Z" fill="#D1D1D1"/>
</svg>
