<svg width="23" height="22" viewBox="0 0 23 22" fill="none" xmlns="http://www.w3.org/2000/svg">
<path fill-rule="evenodd" clip-rule="evenodd" d="M8.06115 4.01934H21.3846L13.4711 9.4443L8.08834 5.75418C8.29328 5.20542 8.29501 4.58512 8.06115 4.01934ZM4.57661 7.16803L6.51864 5.98556C7.09497 5.63465 7.28626 4.88596 6.94886 4.30157L5.19559 1.26482C5.01573 0.95324 4.74348 0.75281 4.39257 0.67359C4.04162 0.59432 3.70975 0.65831 3.4134 0.86235L0.21597 3.06379C-1.30602 8.42648 5.53347 20.0365 10.7789 21.3594L14.2841 19.6911C14.609 19.5365 14.8304 19.281 14.9372 18.9374C15.044 18.5939 15.0066 18.2579 14.8267 17.9464L13.0734 14.9096C12.736 14.3252 11.992 14.1165 11.3999 14.4402L9.40495 15.5308C7.43195 13.7761 5.10976 9.754 4.57661 7.16803ZM22.3524 4.71703L13.7875 10.5885C13.5871 10.7253 13.3298 10.7146 13.1434 10.5808L7.45754 6.68287C7.34982 6.77995 7.23184 6.86845 7.10368 6.94649L5.87537 7.69434C6.5207 9.777 8.1175 12.5427 9.59845 14.1429L10.8602 13.4531C11.9877 12.8368 13.4052 13.2344 14.0476 14.3471L15.1349 16.2304H21.4681C21.9682 16.2304 22.3773 15.8212 22.3773 15.3212V4.92853C22.3773 4.85578 22.3687 4.78495 22.3524 4.71703Z" fill="#D1D1D1"/>
</svg>
