<svg width="24" height="26" viewBox="0 0 24 26" fill="none" xmlns="http://www.w3.org/2000/svg">
<path d="M7.99861 12.9999C7.99861 10.7889 9.78998 8.99605 12.0004 8.99605C14.2107 8.99605 16.0031 10.7889 16.0031 12.9999C16.0031 15.2109 14.2107 17.0038 12.0004 17.0038C9.78998 17.0038 7.99861 15.2109 7.99861 12.9999ZM5.83481 12.9999C5.83481 16.4061 8.59512 19.1673 12.0004 19.1673C15.4056 19.1673 18.1659 16.4061 18.1659 12.9999C18.1659 9.5937 15.4056 6.83259 12.0004 6.83259C8.59512 6.83259 5.83481 9.5937 5.83481 12.9999ZM16.9691 6.58805C16.969 6.87311 17.0534 7.1518 17.2116 7.38888C17.3699 7.62596 17.5948 7.81079 17.8581 7.91998C18.1213 8.02917 18.411 8.05783 18.6905 8.00233C18.9701 7.94683 19.2268 7.80966 19.4284 7.60818C19.63 7.40669 19.7674 7.14993 19.8231 6.87038C19.8788 6.59082 19.8504 6.30101 19.7414 6.03761C19.6325 5.77421 19.4479 5.54904 19.211 5.39057C18.9741 5.23211 18.6956 5.14746 18.4106 5.14735H18.41C18.028 5.14753 17.6617 5.29936 17.3916 5.56948C17.1214 5.83961 16.9695 6.20596 16.9691 6.58805ZM7.14946 22.7763C5.9788 22.723 5.34252 22.5279 4.91967 22.3632C4.35908 22.1448 3.95909 21.8848 3.53855 21.4648C3.11801 21.0447 2.8577 20.645 2.64042 20.0842C2.47558 19.6614 2.28058 19.0248 2.22737 17.8538C2.16916 16.5878 2.15753 16.2074 2.15753 13C2.15753 9.7926 2.17012 9.41335 2.22737 8.14627C2.28068 6.97528 2.47712 6.33987 2.64042 5.91584C2.85866 5.35509 3.11859 4.95499 3.53855 4.53433C3.95852 4.11366 4.35812 3.85327 4.91967 3.63593C5.34232 3.47105 5.9788 3.27599 7.14946 3.22276C8.41511 3.16453 8.79531 3.15291 12.0004 3.15291C15.2054 3.15291 15.586 3.16549 16.8527 3.22276C18.0234 3.27609 18.6586 3.47258 19.0825 3.63593C19.6431 3.85327 20.0431 4.11424 20.4636 4.53433C20.8842 4.95441 21.1435 5.35509 21.3618 5.91584C21.5266 6.33862 21.7216 6.97528 21.7748 8.14627C21.833 9.41335 21.8446 9.7926 21.8446 13C21.8446 16.2074 21.833 16.5867 21.7748 17.8538C21.7215 19.0248 21.5255 19.6612 21.3618 20.0842C21.1435 20.645 20.8836 21.0451 20.4636 21.4648C20.0437 21.8845 19.6431 22.1448 19.0825 22.3632C18.6598 22.528 18.0234 22.7231 16.8527 22.7763C15.5871 22.8345 15.2069 22.8462 12.0004 22.8462C8.79387 22.8462 8.41473 22.8345 7.14946 22.7763ZM7.05004 1.06199C5.7718 1.12022 4.89835 1.32296 4.13555 1.61987C3.34557 1.92647 2.67682 2.33782 2.00855 3.00522C1.34028 3.67263 0.93011 4.34264 0.62359 5.13284C0.326772 5.89634 0.124091 6.76956 0.0658797 8.04817C0.00670819 9.32879 -0.00683594 9.73821 -0.00683594 12.9999C-0.00683594 16.2616 0.00670819 16.6711 0.0658797 17.9517C0.124091 19.2304 0.326772 20.1035 0.62359 20.867C0.93011 21.6567 1.34037 22.3275 2.00855 22.9946C2.67673 23.6617 3.34557 24.0725 4.13555 24.38C4.89979 24.6769 5.7718 24.8796 7.05004 24.9379C8.33097 24.9961 8.73959 25.0106 12.0004 25.0106C15.2611 25.0106 15.6704 24.997 16.9507 24.9379C18.229 24.8796 19.1019 24.6769 19.8652 24.38C20.6547 24.0725 21.3239 23.662 21.9922 22.9946C22.6605 22.3272 23.0698 21.6567 23.3771 20.867C23.674 20.1035 23.8776 19.2303 23.9348 17.9517C23.9931 16.6701 24.0066 16.2616 24.0066 12.9999C24.0066 9.73821 23.9931 9.32879 23.9348 8.04817C23.8766 6.76946 23.674 5.89586 23.3771 5.13284C23.0698 4.34312 22.6594 3.67369 21.9922 3.00522C21.325 2.33676 20.6547 1.92647 19.8661 1.61987C19.1019 1.32296 18.2289 1.11926 16.9517 1.06199C15.6714 1.00377 15.2621 0.989258 12.0013 0.989258C8.74055 0.989258 8.33097 1.00281 7.05004 1.06199Z" fill="white"/>
</svg>
