<svg width="115" height="31" viewBox="0 0 115 31" fill="none" xmlns="http://www.w3.org/2000/svg">
<g clip-path="url(#clip0_2474_7927)">
<g clip-path="url(#clip1_2474_7927)">
<path d="M95.1428 18.6972V23.0683H90.624V18.6972H95.1428ZM105.398 19.9672C106.048 19.9672 106.639 19.8195 107.17 19.5241C107.722 19.2091 108.155 18.7562 108.47 18.1656C108.785 17.5749 108.942 16.8956 108.942 16.1277C108.942 15.3598 108.785 14.6903 108.47 14.1193C108.155 13.5286 107.722 13.0856 107.17 12.7903C106.639 12.4752 106.048 12.3177 105.398 12.3177C104.768 12.3177 104.177 12.4654 103.626 12.7607C103.075 13.0561 102.632 13.4991 102.297 14.0898C101.962 14.6608 101.795 15.3401 101.795 16.1277C101.795 16.9153 101.962 17.6044 102.297 18.1951C102.632 18.7858 103.075 19.2288 103.626 19.5241C104.177 19.8195 104.768 19.9672 105.398 19.9672ZM105.162 8.83264C105.831 8.83264 106.54 8.98032 107.288 9.27566C108.037 9.55131 108.558 9.88605 108.854 10.2798L108.765 9.45287V9.18706H112.664V23.0683H108.883V22.9206L108.972 22.0346C108.676 22.4678 108.155 22.8123 107.406 23.0683C106.678 23.3243 105.93 23.4522 105.162 23.4522C103.705 23.4522 102.425 23.1371 101.322 22.5071C100.24 21.8574 99.4026 20.9811 98.8119 19.8786C98.2212 18.7562 97.9259 17.506 97.9259 16.1277C97.9259 14.6509 98.2312 13.3613 98.8414 12.2586C99.4716 11.156 100.328 10.3094 101.411 9.71868C102.514 9.12799 103.764 8.83264 105.162 8.83264ZM120.894 2.74854V6.8243H116.612V2.74854H120.894ZM120.835 23.0683H117.114V12.4949H115.43L116.08 9.18706H120.835V23.0683Z" fill="url(#paint0_linear_2474_7927)"/>
<path d="M57.5188 18.6972V23.0683H53V18.6972H57.5188ZM67.7741 19.9672C68.4238 19.9672 69.0145 19.8195 69.5462 19.5241C70.0975 19.2091 70.5308 18.7562 70.8457 18.1656C71.1608 17.5749 71.3182 16.8956 71.3182 16.1277C71.3182 15.3598 71.1608 14.6903 70.8457 14.1193C70.5308 13.5286 70.0975 13.0856 69.5462 12.7903C69.0145 12.4752 68.4238 12.3177 67.7741 12.3177C67.1441 12.3177 66.5534 12.4654 66.002 12.7607C65.4508 13.0561 65.0078 13.4991 64.673 14.0898C64.3383 14.6608 64.1709 15.3401 64.1709 16.1277C64.1709 16.9153 64.3383 17.6044 64.673 18.1951C65.0078 18.7858 65.4508 19.2288 66.002 19.5241C66.5534 19.8195 67.1441 19.9672 67.7741 19.9672ZM67.5378 8.83264C68.2073 8.83264 68.9162 8.98032 69.6643 9.27566C70.4126 9.55131 70.9343 9.88605 71.2296 10.2798L71.141 9.45287V9.18706H75.0396V23.0683H71.2592V22.9206L71.3478 22.0346C71.0524 22.4678 70.5308 22.8123 69.7824 23.0683C69.054 23.3243 68.3057 23.4522 67.5378 23.4522C66.0808 23.4522 64.8011 23.1371 63.6983 22.5071C62.6155 21.8574 61.7786 20.9811 61.1879 19.8786C60.5972 18.7562 60.3019 17.506 60.3019 16.1277C60.3019 14.6509 60.6072 13.3613 61.2174 12.2586C61.8476 11.156 62.7041 10.3094 63.7869 9.71868C64.8897 9.12799 66.1399 8.83264 67.5378 8.83264ZM83.2703 2.74854V6.8243H78.9878V2.74854H83.2703ZM83.2112 23.0683H79.4899V12.4949H77.8064L78.4562 9.18706H83.2112V23.0683Z" fill="url(#paint1_linear_2474_7927)"/>
<path d="M19.8948 18.6972V23.0683H15.376V18.6972H19.8948ZM30.1501 19.9672C30.7998 19.9672 31.3905 19.8195 31.9221 19.5241C32.4735 19.2091 32.9067 18.7562 33.2216 18.1656C33.5367 17.5749 33.6942 16.8956 33.6942 16.1277C33.6942 15.3598 33.5367 14.6903 33.2216 14.1193C32.9067 13.5286 32.4735 13.0856 31.9221 12.7903C31.3905 12.4752 30.7998 12.3177 30.1501 12.3177C29.5201 12.3177 28.9294 12.4654 28.378 12.7607C27.8268 13.0561 27.3838 13.4991 27.0489 14.0898C26.7143 14.6608 26.5469 15.3401 26.5469 16.1277C26.5469 16.9153 26.7143 17.6044 27.0489 18.1951C27.3838 18.7858 27.8268 19.2288 28.378 19.5241C28.9294 19.8195 29.5201 19.9672 30.1501 19.9672ZM29.9138 8.83264C30.5833 8.83264 31.2921 8.98032 32.0403 9.27566C32.7886 9.55131 33.3103 9.88605 33.6056 10.2798L33.517 9.45287V9.18706H37.4156V23.0683H33.6351V22.9206L33.7237 22.0346C33.4284 22.4678 32.9067 22.8123 32.1584 23.0683C31.43 23.3243 30.6817 23.4522 29.9138 23.4522C28.4568 23.4522 27.177 23.1371 26.0743 22.5071C24.9915 21.8574 24.1546 20.9811 23.5639 19.8786C22.9732 18.7562 22.6778 17.506 22.6778 16.1277C22.6778 14.6509 22.9831 13.3613 23.5934 12.2586C24.2236 11.156 25.0801 10.3094 26.1629 9.71868C27.2656 9.12799 28.5159 8.83264 29.9138 8.83264ZM45.6463 2.74854V6.8243H41.3638V2.74854H45.6463ZM45.5872 23.0683H41.8659V12.4949H40.1824L40.8321 9.18706H45.5872V23.0683Z" fill="url(#paint2_linear_2474_7927)"/>
<path d="M-17.7293 18.6972V23.0683H-22.248V18.6972H-17.7293ZM-7.47396 19.9672C-6.8242 19.9672 -6.23351 19.8195 -5.70189 19.5241C-5.15052 19.2091 -4.71729 18.7562 -4.40238 18.1656C-4.08728 17.5749 -3.92981 16.8956 -3.92981 16.1277C-3.92981 15.3598 -4.08728 14.6903 -4.40238 14.1193C-4.71729 13.5286 -5.15052 13.0856 -5.70189 12.7903C-6.23351 12.4752 -6.8242 12.3177 -7.47396 12.3177C-8.10397 12.3177 -8.69466 12.4654 -9.24604 12.7607C-9.79722 13.0561 -10.2402 13.4991 -10.5751 14.0898C-10.9097 14.6608 -11.0772 15.3401 -11.0772 16.1277C-11.0772 16.9153 -10.9097 17.6044 -10.5751 18.1951C-10.2402 18.7858 -9.79722 19.2288 -9.24604 19.5241C-8.69466 19.8195 -8.10397 19.9672 -7.47396 19.9672ZM-7.71024 8.83264C-7.04073 8.83264 -6.3319 8.98032 -5.58375 9.27566C-4.83542 9.55131 -4.31377 9.88605 -4.01842 10.2798L-4.10703 9.45287V9.18706H-0.208471V23.0683H-3.98888V22.9206L-3.90028 22.0346C-4.19563 22.4678 -4.71728 22.8123 -5.46561 23.0683C-6.19401 23.3243 -6.94234 23.4522 -7.71024 23.4522C-9.16721 23.4522 -10.447 23.1371 -11.5497 22.5071C-12.6325 21.8574 -13.4695 20.9811 -14.0602 19.8786C-14.6508 18.7562 -14.9462 17.506 -14.9462 16.1277C-14.9462 14.6509 -14.6409 13.3613 -14.0306 12.2586C-13.4004 11.156 -12.5439 10.3094 -11.4611 9.71868C-10.3584 9.12799 -9.10814 8.83264 -7.71024 8.83264ZM8.02224 2.74854V6.8243H3.73973V2.74854H8.02224ZM7.96317 23.0683H4.24183V12.4949H2.55836L3.20811 9.18706H7.96317V23.0683Z" fill="url(#paint3_linear_2474_7927)"/>
</g>
</g>
<defs>
<linearGradient id="paint0_linear_2474_7927" x1="97.7712" y1="2.74853" x2="121.85" y2="18.5997" gradientUnits="userSpaceOnUse">
<stop stop-color="#FFB524"/>
<stop offset="1" stop-color="#FF8C39"/>
</linearGradient>
<linearGradient id="paint1_linear_2474_7927" x1="60.1472" y1="2.74853" x2="84.2258" y2="18.5997" gradientUnits="userSpaceOnUse">
<stop stop-color="#FFB524"/>
<stop offset="1" stop-color="#FF8C39"/>
</linearGradient>
<linearGradient id="paint2_linear_2474_7927" x1="22.5231" y1="2.74853" x2="46.6017" y2="18.5997" gradientUnits="userSpaceOnUse">
<stop stop-color="#FFB524"/>
<stop offset="1" stop-color="#FF8C39"/>
</linearGradient>
<linearGradient id="paint3_linear_2474_7927" x1="-15.1009" y1="2.74853" x2="8.97771" y2="18.5997" gradientUnits="userSpaceOnUse">
<stop stop-color="#FFB524"/>
<stop offset="1" stop-color="#FF8C39"/>
</linearGradient>
<clipPath id="clip0_2474_7927">
<rect width="115" height="30" fill="white" transform="translate(0 0.5)"/>
</clipPath>
<clipPath id="clip1_2474_7927">
<rect width="115" height="28.427" fill="white" transform="translate(0 1.28662)"/>
</clipPath>
</defs>
</svg>
