<svg width="22" height="24" viewBox="0 0 22 24" fill="none" xmlns="http://www.w3.org/2000/svg">
<path d="M18.6773 5.24955C18.5181 5.16725 18.363 5.07703 18.2128 4.97924C17.776 4.69048 17.3756 4.35023 17.02 3.96582C16.1305 2.94799 15.7982 1.9154 15.6759 1.19245H15.6808C15.5786 0.592364 15.6208 0.204102 15.6272 0.204102H11.5755V15.8712C11.5755 16.0816 11.5755 16.2895 11.5667 16.4949C11.5667 16.5205 11.5642 16.5441 11.5627 16.5716C11.5627 16.5829 11.5627 16.5947 11.5603 16.6065C11.5603 16.6094 11.5603 16.6124 11.5603 16.6153C11.5176 17.1774 11.3374 17.7205 11.0355 18.1966C10.7337 18.6728 10.3195 19.0674 9.82932 19.3459C9.31846 19.6366 8.74066 19.789 8.15292 19.7883C6.26517 19.7883 4.73522 18.249 4.73522 16.348C4.73522 14.4469 6.26517 12.9077 8.15292 12.9077C8.51026 12.9073 8.8654 12.9636 9.20516 13.0743L9.21007 8.94885C8.17865 8.81562 7.13081 8.89759 6.13266 9.18959C5.1345 9.4816 4.2077 9.97729 3.41071 10.6454C2.71236 11.2522 2.12526 11.9762 1.67581 12.7848C1.50478 13.0797 0.859481 14.2646 0.781337 16.1877C0.73219 17.2793 1.06 18.4102 1.21629 18.8776V18.8874C1.31458 19.1626 1.69547 20.1018 2.3162 20.8936C2.81673 21.5287 3.4081 22.0866 4.07125 22.5493V22.5395L4.08107 22.5493C6.04254 23.8822 8.2173 23.7947 8.2173 23.7947C8.59376 23.7795 9.85488 23.7947 11.287 23.116C12.8755 22.3636 13.7798 21.2425 13.7798 21.2425C14.3575 20.5727 14.8169 19.8093 15.1382 18.9852C15.5048 18.0214 15.6272 16.8655 15.6272 16.4035V8.09173C15.6764 8.12121 16.331 8.5542 16.331 8.5542C16.331 8.5542 17.2741 9.15871 18.7456 9.55238C19.8013 9.83252 21.2236 9.89149 21.2236 9.89149V5.86929C20.7252 5.92335 19.7133 5.76608 18.6773 5.24955Z" fill="white"/>
</svg>
