<svg width="20" height="21" viewBox="0 0 20 21" fill="none" xmlns="http://www.w3.org/2000/svg">
<path d="M18.3111 16.9057C17.24 15.0257 15.5674 13.5609 13.5627 12.7471C14.5596 11.9994 15.296 10.9569 15.6676 9.76744C16.0392 8.57795 16.0271 7.30169 15.633 6.11947C15.2389 4.93724 14.4829 3.90897 13.4719 3.18032C12.461 2.45167 11.2464 2.05957 10.0002 2.05957C8.75401 2.05957 7.53942 2.45167 6.52847 3.18032C5.51752 3.90897 4.76146 4.93724 4.36738 6.11947C3.9733 7.30169 3.96119 8.57795 4.33276 9.76744C4.70433 10.9569 5.44075 11.9994 6.43769 12.7471C4.43294 13.5609 2.76038 15.0257 1.68925 16.9057C1.62288 17.0124 1.57864 17.1314 1.55917 17.2555C1.5397 17.3797 1.54539 17.5065 1.57591 17.6284C1.60642 17.7503 1.66114 17.8648 1.7368 17.9652C1.81247 18.0655 1.90753 18.1497 2.01635 18.2125C2.12517 18.2754 2.24552 18.3157 2.37025 18.3312C2.49497 18.3466 2.62153 18.3368 2.74239 18.3023C2.86325 18.2679 2.97595 18.2095 3.07379 18.1306C3.17162 18.0517 3.2526 17.954 3.31191 17.8432C4.72753 15.3963 7.22753 13.9369 10.0002 13.9369C12.7728 13.9369 15.2728 15.3971 16.6885 17.8432C16.817 18.0498 17.0209 18.1984 17.2569 18.2575C17.493 18.3166 17.7428 18.2816 17.9536 18.1598C18.1643 18.0381 18.3194 17.8391 18.3861 17.6051C18.4529 17.3711 18.426 17.1202 18.3111 16.9057ZM5.93769 7.99941C5.93769 7.19593 6.17595 6.41048 6.62234 5.74241C7.06874 5.07434 7.70321 4.55363 8.44554 4.24615C9.18786 3.93867 10.0047 3.85822 10.7927 4.01497C11.5808 4.17173 12.3047 4.55864 12.8728 5.12679C13.441 5.69494 13.8279 6.41881 13.9846 7.20686C14.1414 7.99491 14.0609 8.81174 13.7534 9.55406C13.446 10.2964 12.9253 10.9309 12.2572 11.3773C11.5891 11.8237 10.8037 12.0619 10.0002 12.0619C8.92313 12.0607 7.89053 11.6323 7.12894 10.8707C6.36734 10.1091 5.93893 9.07647 5.93769 7.99941Z" fill="#969696"/>
</svg>
