<svg width="24" height="24" viewBox="0 0 24 24" fill="none" xmlns="http://www.w3.org/2000/svg">
<path fill-rule="evenodd" clip-rule="evenodd" d="M12 24C5.3647 24 0 18.6353 0 12C0 5.36471 5.3647 0 12 0C18.6353 0 24 5.36471 24 12C24 18.6353 18.6353 24 12 24ZM12 1.41176C6.14117 1.41176 1.41176 6.14118 1.41176 12C1.41176 17.8588 6.14117 22.5882 12 22.5882C17.8588 22.5882 22.5882 17.8588 22.5882 12C22.5882 6.14118 17.8588 1.41176 12 1.41176ZM17.1413 5.86035L18.1394 6.85917L12.9989 11.9998L18.1394 17.1404L17.1413 18.1392L12.0004 12.9982L6.85945 18.1392L5.86133 17.1411L11.0021 12L5.86133 6.85917L6.85945 5.86035L12.0005 11.0015L17.1413 5.86035Z" fill="#A3A2A2"/>
</svg>
