<svg width="135" height="37" viewBox="0 0 135 37" fill="none" xmlns="http://www.w3.org/2000/svg">
<path fill-rule="evenodd" clip-rule="evenodd" d="M131.934 0.5H72.0679C70.2055 0.682247 69.181 1.67598 69 3.49013V33.5092C69.1792 35.3205 70.2014 36.3105 72.0514 36.5H131.948C133.799 36.3105 134.82 35.3198 135 33.5092V3.49013C134.819 1.67598 133.795 0.682247 131.934 0.5Z" fill="#FF9000"/>
<path d="M79.8261 6.47224V14.5711C81.1885 12.9784 82.8163 12.182 84.7095 12.182C85.6812 12.182 86.5577 12.3623 87.339 12.723C88.1203 13.0836 88.7064 13.5444 89.097 14.1053C89.4977 14.6663 89.7682 15.2873 89.9084 15.9685C90.0587 16.6497 90.1338 17.7065 90.1338 19.139V28.5H85.9116V20.0705C85.9116 18.3977 85.8314 17.3359 85.6711 16.8851C85.5109 16.4343 85.2254 16.0787 84.8147 15.8183C84.414 15.5478 83.9081 15.4126 83.2971 15.4126C82.5959 15.4126 81.9698 15.5829 81.4189 15.9234C80.8679 16.264 80.4622 16.7799 80.2018 17.4711C79.9513 18.1523 79.8261 19.164 79.8261 20.5063V28.5H75.6039V6.47224H79.8261ZM94.4312 28.5V24.2778H98.6534V28.5H94.4312ZM122.89 28.5H118.052L116.128 23.4964H107.323L105.505 28.5H100.787L109.367 6.47224H114.07L122.89 28.5ZM114.701 19.7851L111.666 11.611L108.691 19.7851H114.701ZM125.129 28.5V6.47224H129.576V28.5H125.129Z" fill="black"/>
<path fill-rule="evenodd" clip-rule="evenodd" d="M11.9527 14.247C11.6126 14.7489 11.143 15.1176 10.5436 15.3525C9.94421 15.5877 8.7551 15.7057 6.97816 15.7057H4.50978V9.31683H6.68891C8.31391 9.31683 9.39567 9.3684 9.93423 9.4703C10.6656 9.60396 11.2697 9.9364 11.7474 10.4685C12.2244 11.0013 12.4634 11.6766 12.4634 12.4959C12.4634 13.1613 12.2931 13.7451 11.9527 14.247ZM12.6006 5.84591C11.7678 5.62042 9.97991 5.50781 7.23726 5.50781H0V28.0227H4.50992V19.5301H7.45038C9.49222 19.5301 11.0514 19.4222 12.1278 19.2075C12.921 19.0332 13.7001 18.6771 14.4674 18.1401C15.2336 17.6029 15.8658 16.8628 16.3641 15.9202C16.8618 14.9792 17.1108 13.8171 17.1108 12.4342C17.1108 10.6428 16.6787 9.18126 15.8155 8.04967C14.9519 6.91869 13.8801 6.1837 12.6006 5.84591Z" fill="white"/>
<path fill-rule="evenodd" clip-rule="evenodd" d="M29.1885 23.585C28.4312 24.4449 27.4942 24.8748 26.3772 24.8748C25.2595 24.8748 24.32 24.4449 23.5581 23.585C22.7964 22.7245 22.4157 21.4854 22.4157 19.8682C22.4157 18.2503 22.7964 17.0115 23.5581 16.1512C24.32 15.2914 25.2595 14.8616 26.3772 14.8616C27.4942 14.8616 28.4312 15.2914 29.1885 16.1512C29.9452 17.0115 30.3232 18.2406 30.3232 19.8376C30.3232 21.4762 29.9452 22.7245 29.1885 23.585ZM26.3616 11.3447C24.7772 11.3447 23.3425 11.6976 22.058 12.4046C20.7721 13.1107 19.7799 14.1344 19.0788 15.4758C18.378 16.8171 18.0273 18.2044 18.0273 19.6379C18.0273 21.5114 18.378 23.1013 19.0788 24.4061C19.7799 25.712 20.8027 26.7027 22.1491 27.3776C23.4949 28.0532 24.9094 28.3923 26.3925 28.3923C28.7895 28.3923 30.778 27.5802 32.3574 25.9573C33.9369 24.3349 34.7268 22.2895 34.7268 19.8213C34.7268 17.3751 33.9449 15.3499 32.3805 13.7482C30.8157 12.1461 28.8098 11.3447 26.3616 11.3447Z" fill="white"/>
<path fill-rule="evenodd" clip-rule="evenodd" d="M43.824 11.4067C42.5572 11.5699 41.3466 12.6002 40.8168 13.256V11.7127H36.8398V28.0227H41.1213V22.9863C41.1213 20.211 41.2402 18.3887 41.4792 17.5182C41.7178 16.6476 42.0455 16.0469 42.4621 15.7136C42.8785 15.3811 43.3865 15.2144 43.9862 15.2144C44.6053 15.2144 45.2755 15.4493 45.9969 15.9205L47.3229 12.158C46.4188 11.6152 45.4786 11.3447 44.5035 11.3447C44.2683 11.3447 44.0421 11.3664 43.824 11.4067Z" fill="white"/>
<path fill-rule="evenodd" clip-rule="evenodd" d="M64.2241 14.984C64.0664 14.3084 63.7875 13.7039 63.3868 13.1715C62.9847 12.639 62.393 12.2015 61.6112 11.8587C60.8286 11.5156 59.9656 11.3445 59.0204 11.3445C57.3074 11.2464 54.528 11.9056 53.6881 13.246V11.7125H49.7114V28.0226H53.9929V20.6357C53.9929 18.8134 54.102 17.5639 54.3202 16.889C54.5383 16.2125 54.9427 15.6703 55.5318 15.2601C56.1209 14.8506 56.7861 14.6459 57.5274 14.6459C58.1065 14.6459 58.6014 14.7899 59.013 15.0759C59.4249 15.3623 59.7222 15.7649 59.9047 16.2816C60.0876 16.7993 60.179 17.9379 60.179 19.6988V28.0226H64.4599V17.8866C64.4599 16.6269 64.3813 15.6596 64.2241 14.984Z" fill="white"/>
</svg>
