<svg width="135" height="37" viewBox="0 0 135 37" fill="none" xmlns="http://www.w3.org/2000/svg">
<path d="M82.1557 6.97224V15.0711C83.518 13.4784 85.1458 12.682 87.0391 12.682C88.0107 12.682 88.8872 12.8623 89.6686 13.223C90.4499 13.5836 91.0359 14.0444 91.4266 14.6053C91.8273 15.1663 92.0977 15.7873 92.238 16.4685C92.3882 17.1497 92.4634 18.2065 92.4634 19.639V29H88.2411V20.5705C88.2411 18.8977 88.161 17.8359 88.0007 17.3851C87.8404 16.9343 87.555 16.5787 87.1443 16.3183C86.7436 16.0478 86.2377 15.9126 85.6266 15.9126C84.9254 15.9126 84.2994 16.0829 83.7484 16.4234C83.1975 16.764 82.7918 17.2799 82.5313 17.9711C82.2809 18.6523 82.1557 19.664 82.1557 21.0063V29H77.9335V6.97224H82.1557ZM96.7607 29V24.7778H100.983V29H96.7607ZM125.22 29H120.381L118.458 23.9964H109.653L107.835 29H103.117L111.696 6.97224H116.399L125.22 29ZM117.03 20.2851L113.995 12.111L111.02 20.2851H117.03ZM127.458 29V6.97224H131.906V29H127.458Z" fill="white"/>
<path fill-rule="evenodd" clip-rule="evenodd" d="M12.2243 14.5325C11.8765 15.0631 11.3962 15.4529 10.7832 15.7012C10.1702 15.9499 8.95408 16.0745 7.13676 16.0745H4.61228V9.32062H6.84093C8.50286 9.32062 9.60921 9.37514 10.16 9.48286C10.908 9.62416 11.5258 9.9756 12.0143 10.5382C12.5023 11.1014 12.7467 11.8152 12.7467 12.6813C12.7467 13.3848 12.5725 14.0019 12.2243 14.5325ZM12.8869 5.65136C12.0352 5.41299 10.2067 5.29395 7.40175 5.29395H0V29.0954H4.61242V20.1175H7.6197C9.70796 20.1175 11.3026 20.0034 12.4035 19.7765C13.2147 19.5922 14.0115 19.2158 14.7962 18.648C15.5798 18.0801 16.2264 17.2978 16.7361 16.3014C17.245 15.3066 17.4996 14.078 17.4996 12.6161C17.4996 10.7223 17.0578 9.1773 16.175 7.98105C15.2918 6.78545 14.1956 6.00845 12.8869 5.65136Z" fill="white"/>
<path fill-rule="evenodd" clip-rule="evenodd" d="M29.8521 24.4041C29.0775 25.3131 28.1193 25.7677 26.9769 25.7677C25.8338 25.7677 24.8729 25.3131 24.0937 24.4041C23.3147 23.4944 22.9254 22.1845 22.9254 20.4749C22.9254 18.7646 23.3147 17.455 24.0937 16.5456C24.8729 15.6366 25.8338 15.1822 26.9769 15.1822C28.1193 15.1822 29.0775 15.6366 29.8521 16.5456C30.6259 17.455 31.0126 18.7543 31.0126 20.4425C31.0126 22.1748 30.6259 23.4944 29.8521 24.4041ZM26.9609 11.4644C25.3405 11.4644 23.8732 11.8374 22.5595 12.5848C21.2444 13.3313 20.2296 14.4135 19.5126 15.8315C18.7958 17.2495 18.4372 18.716 18.4372 20.2315C18.4372 22.212 18.7958 23.8928 19.5126 25.2722C20.2296 26.6526 21.2757 27.6999 22.6527 28.4134C24.029 29.1276 25.4758 29.4861 26.9925 29.4861C29.4439 29.4861 31.4777 28.6276 33.093 26.912C34.7083 25.1968 35.5162 23.0346 35.5162 20.4253C35.5162 17.8393 34.7166 15.6984 33.1167 14.0052C31.5163 12.3115 29.4647 11.4644 26.9609 11.4644Z" fill="white"/>
<path fill-rule="evenodd" clip-rule="evenodd" d="M44.82 11.5299C43.5244 11.7024 42.2863 12.7917 41.7444 13.4849V11.8534H37.6771V29.0954H42.0559V23.7712C42.0559 20.8373 42.1775 18.9109 42.4219 17.9906C42.6659 17.0703 43.001 16.4353 43.4271 16.0829C43.8531 15.7314 44.3726 15.5552 44.9859 15.5552C45.6191 15.5552 46.3045 15.8035 47.0423 16.3016L48.3984 12.3242C47.4738 11.7503 46.5122 11.4644 45.515 11.4644C45.2744 11.4644 45.043 11.4873 44.82 11.5299Z" fill="white"/>
<path fill-rule="evenodd" clip-rule="evenodd" d="M65.6837 15.3116C65.5225 14.5974 65.2372 13.9584 64.8274 13.3955C64.4161 12.8327 63.811 12.3702 63.0114 12.0078C62.2111 11.645 61.3284 11.4642 60.3618 11.4642C58.6099 11.3604 55.7673 12.0573 54.9083 13.4743V11.8532H50.8412V29.0953H55.22V21.2863C55.22 19.3599 55.3316 18.0389 55.5548 17.3254C55.7778 16.6103 56.1914 16.0372 56.7939 15.6035C57.3964 15.1706 58.0767 14.9542 58.8349 14.9542C59.4271 14.9542 59.9333 15.1064 60.3542 15.4088C60.7755 15.7115 61.0795 16.1371 61.2662 16.6834C61.4532 17.2306 61.5468 18.4343 61.5468 20.2958V29.0953H65.9249V18.3801C65.9249 17.0484 65.8445 16.0258 65.6837 15.3116Z" fill="white"/>
</svg>
