<svg width="24" height="24" viewBox="0 0 24 24" fill="none" xmlns="http://www.w3.org/2000/svg">
<mask id="mask0_2717_722" style="mask-type:luminance" maskUnits="userSpaceOnUse" x="0" y="0" width="24" height="24">
<path d="M24 0H0V24H24V0Z" fill="white"/>
</mask>
<g mask="url(#mask0_2717_722)">
<path d="M23.7799 8.64499L18.266 3.13099C18.1265 2.99149 17.9382 2.91274 17.7417 2.91124L6.35737 2.82424C6.15637 2.82274 5.96362 2.90149 5.82113 3.04399L0.219375 8.64574C-0.073125 8.93899 -0.073125 9.41299 0.219375 9.70624L11.4694 20.9562C11.7626 21.2494 12.2374 21.2494 12.5299 20.9562L23.7799 9.70624C24.0732 9.41299 24.0732 8.93824 23.7799 8.64499ZM19.43 9.71149L14.0659 15.1287C13.7741 15.4234 13.2994 15.4257 13.0046 15.1339C12.7099 14.8422 12.7076 14.3675 12.9994 14.0727L17.8557 9.16999L16.2147 7.42099C15.9275 7.12324 15.9365 6.64774 16.235 6.36049C16.3805 6.21949 16.577 6.14524 16.7787 6.15124C16.9812 6.15724 17.1724 6.24499 17.309 6.39424L19.445 8.67199C19.7194 8.96599 19.7135 9.42499 19.43 9.71149Z" fill="url(#paint0_linear_2717_722)"/>
</g>
<defs>
<linearGradient id="paint0_linear_2717_722" x1="5.66664" y1="2.82422" x2="25.9858" y2="14.7887" gradientUnits="userSpaceOnUse">
<stop stop-color="#FFB524"/>
<stop offset="1" stop-color="#FF8C39"/>
</linearGradient>
</defs>
</svg>
