<svg width="20" height="21" viewBox="0 0 20 21" fill="none" xmlns="http://www.w3.org/2000/svg">
<path d="M9.6875 17.375C9.6875 17.6236 9.58873 17.8621 9.41291 18.0379C9.2371 18.2137 8.99864 18.3125 8.75 18.3125H3.75C3.50136 18.3125 3.2629 18.2137 3.08709 18.0379C2.91127 17.8621 2.8125 17.6236 2.8125 17.375V3.625C2.8125 3.37636 2.91127 3.1379 3.08709 2.96209C3.2629 2.78627 3.50136 2.6875 3.75 2.6875H8.75C8.99864 2.6875 9.2371 2.78627 9.41291 2.96209C9.58873 3.1379 9.6875 3.37636 9.6875 3.625C9.6875 3.87364 9.58873 4.1121 9.41291 4.28791C9.2371 4.46373 8.99864 4.5625 8.75 4.5625H4.6875V16.4375H8.75C8.99864 16.4375 9.2371 16.5363 9.41291 16.7121C9.58873 16.8879 9.6875 17.1264 9.6875 17.375ZM18.1633 9.83672L15.0383 6.71172C14.8622 6.5356 14.6233 6.43665 14.3742 6.43665C14.1251 6.43665 13.8863 6.5356 13.7102 6.71172C13.534 6.88784 13.4351 7.12671 13.4351 7.37578C13.4351 7.62485 13.534 7.86372 13.7102 8.03984L15.2344 9.5625H8.75C8.50136 9.5625 8.2629 9.66127 8.08709 9.83709C7.91127 10.0129 7.8125 10.2514 7.8125 10.5C7.8125 10.7486 7.91127 10.9871 8.08709 11.1629C8.2629 11.3387 8.50136 11.4375 8.75 11.4375H15.2344L13.7094 12.9617C13.5333 13.1378 13.4343 13.3767 13.4343 13.6258C13.4343 13.8749 13.5333 14.1137 13.7094 14.2898C13.8855 14.466 14.1244 14.5649 14.3734 14.5649C14.6225 14.5649 14.8614 14.466 15.0375 14.2898L18.1625 11.1648C18.2499 11.0778 18.3194 10.9743 18.3667 10.8604C18.4141 10.7465 18.4386 10.6243 18.4386 10.5009C18.4387 10.3776 18.4144 10.2554 18.3672 10.1414C18.3199 10.0274 18.2506 9.92387 18.1633 9.83672Z" fill="#969696"/>
</svg>
