<svg width="335" height="34" viewBox="0 0 335 34" fill="none" xmlns="http://www.w3.org/2000/svg">
<path d="M214.137 19.8561C214.345 19.8592 214.058 19.8809 213.275 19.9213C212.493 19.9095 211.738 19.872 211.008 19.8088L214.137 19.8561ZM67.3517 17.5627C67.561 17.5137 67.9781 17.52 68.6029 17.5815C69.2807 17.5918 69.9067 17.5752 70.481 17.5317C70.5852 17.5332 70.5066 17.5581 70.2452 17.6063C69.9845 17.6024 69.6456 17.5973 69.2285 17.591C68.8636 17.5855 68.4726 17.5796 68.0555 17.5733C67.6906 17.5678 67.4559 17.5642 67.3517 17.5627ZM9.58664 25.2951C9.68934 25.401 9.79204 25.5068 9.89473 25.6127C10.0496 25.7193 10.2044 25.8259 10.3592 25.9326C10.3584 25.9847 10.3324 25.9843 10.281 25.9314C10.2297 25.8785 10.1523 25.8252 10.0488 25.7714C9.94608 25.6656 9.8426 25.6119 9.73833 25.6103C9.68698 25.5574 9.66091 25.557 9.66013 25.6091C9.45316 25.5017 9.3244 25.3955 9.27383 25.2904C9.17035 25.2367 9.06726 25.1569 8.96457 25.0511C8.75839 24.8915 8.78524 24.8398 9.04513 24.8959C8.94165 24.8422 8.81288 24.7359 8.65884 24.5772C8.76153 24.683 8.83895 24.7363 8.89108 24.7371L9.12215 24.9753C9.17429 24.976 9.2517 25.0294 9.3544 25.1352C9.40653 25.136 9.48395 25.1893 9.58664 25.2951ZM5.47968 22.7301C5.47811 22.8344 5.52945 22.8873 5.63372 22.8889L5.86479 23.127C5.81266 23.1262 5.78698 23.0998 5.78777 23.0477L5.79013 22.8912C5.68743 22.7854 5.63687 22.6803 5.63845 22.5761C5.5871 22.5232 5.56182 22.4706 5.5626 22.4185L5.56378 22.3403C5.56457 22.2882 5.6171 22.2629 5.72137 22.2644C6.02788 22.6862 6.25816 22.9765 6.41221 23.1353C6.46356 23.1882 6.48923 23.2147 6.48923 23.2147C6.54137 23.2155 6.59311 23.2423 6.64446 23.2952C6.74715 23.4011 6.7985 23.454 6.7985 23.454C6.84906 23.5591 6.90002 23.6381 6.95136 23.691C7.0035 23.6918 7.05524 23.7186 7.10659 23.7715C7.20929 23.8774 7.26024 23.9564 7.25945 24.0085C7.3108 24.0614 7.36215 24.1143 7.4135 24.1673C7.46485 24.2202 7.48973 24.2988 7.48816 24.4031L7.40996 24.4019C7.35782 24.4011 7.30608 24.3742 7.25473 24.3213C7.09833 24.319 6.91704 24.238 6.71086 24.0784C6.71086 24.0784 6.60737 24.0247 6.40041 23.9173C6.34985 23.8123 6.22108 23.706 6.01412 23.5986C5.86007 23.4398 5.62979 23.1496 5.32328 22.7278C5.32485 22.6235 5.37698 22.6243 5.47968 22.7301ZM28.3688 14.3149C28.3688 14.3149 28.2641 14.3394 28.0548 14.3884C27.8455 14.4373 27.6361 14.4863 27.4268 14.5353C27.2183 14.5322 27.0097 14.529 26.8012 14.5259C26.6448 14.5235 26.567 14.4963 26.5678 14.4441C26.9848 14.4504 27.2976 14.4552 27.5062 14.4583C27.7676 14.4101 28.0552 14.3623 28.3688 14.3149ZM8.61219 17.302C8.455 17.3518 8.3764 17.3766 8.3764 17.3766C8.37719 17.3245 8.40404 17.2728 8.45696 17.2214C8.50989 17.1701 8.56281 17.1187 8.61573 17.0674C8.66865 17.016 8.64298 16.9896 8.53871 16.988C8.80095 16.8877 8.90522 16.8892 8.85152 16.9927C8.79781 17.0962 8.71803 17.1993 8.61219 17.302ZM3.99352 17.5452C3.9406 17.5965 3.88807 17.6218 3.83594 17.621C3.83594 17.621 3.80948 17.6467 3.75655 17.698C3.65071 17.8007 3.59779 17.8521 3.59779 17.8521C3.70363 17.7494 3.8624 17.5953 4.07409 17.3899C4.28577 17.1845 4.5492 17.006 4.86437 16.8543C5.12819 16.6497 5.4173 16.4976 5.73168 16.3981C6.04685 16.2464 6.33556 16.1204 6.59781 16.0201C6.70286 15.9695 6.72893 15.9699 6.67601 16.0212C6.67601 16.0212 6.62348 16.0465 6.51842 16.0971C6.46629 16.0963 6.33517 16.1465 6.12505 16.2476L5.6523 16.4751L4.46864 17.1612C4.36279 17.2639 4.28341 17.3409 4.23049 17.3923C4.17835 17.3915 4.09937 17.4425 3.99352 17.5452ZM1.56335 17.8996C1.45671 18.0544 1.37694 18.1575 1.32402 18.2089C1.27188 18.2081 1.27267 18.1559 1.32638 18.0524C1.3793 18.0011 1.40576 17.9754 1.40576 17.9754C1.40655 17.9233 1.45986 17.8459 1.56571 17.7432C1.56649 17.691 1.61981 17.6136 1.72565 17.5109C1.72644 17.4588 1.77975 17.3814 1.8856 17.2787L2.12374 17.0476C2.17667 16.9963 2.20313 16.9706 2.20313 16.9706C2.20391 16.9185 2.23077 16.8667 2.28369 16.8154L2.52184 16.5843L2.75999 16.3532C2.86504 16.3027 2.99695 16.2004 3.15572 16.0463C3.26078 15.9958 3.36623 15.9191 3.47207 15.8164C3.57634 15.818 3.33819 16.0491 2.75763 16.5096C2.65257 16.5602 2.57358 16.6112 2.52066 16.6625C2.51987 16.7146 2.46695 16.766 2.36189 16.8165C2.30818 16.92 2.25487 16.9974 2.20195 17.0488C2.14981 17.048 2.09689 17.0994 2.04318 17.2028C1.93734 17.3055 1.88442 17.3569 1.88442 17.3569C1.83149 17.4082 1.80464 17.46 1.80385 17.5121C1.80385 17.5121 1.77739 17.5378 1.72447 17.5891C1.72447 17.5891 1.69762 17.6409 1.64391 17.7444C1.59099 17.7957 1.56413 17.8474 1.56335 17.8996ZM62.8236 6.62172C62.51 6.66913 62.0404 6.68812 61.4147 6.67867C60.7891 6.66923 60.1374 6.6594 59.4597 6.64917C58.7819 6.63894 58.1302 6.62911 57.5046 6.61967C56.9311 6.61101 56.5148 6.55258 56.2557 6.44438C57.4027 6.46169 58.445 6.50349 59.3827 6.56979C60.3211 6.58395 61.4681 6.60126 62.8236 6.62172ZM7.44418 22.134C7.59823 22.2928 7.72699 22.399 7.83047 22.4527L7.75227 22.4515L7.75345 22.3733L7.67525 22.3722L7.59823 22.2928L7.44418 22.134ZM73.3721 17.7317L73.6067 17.7353L73.3721 17.7317ZM7.75227 22.4515L7.83047 22.4527L7.75227 22.4515ZM7.75227 22.4515L7.75345 22.3733L7.75227 22.4515ZM8.44547 23.166L8.44665 23.0878L8.44547 23.166ZM8.36845 23.0866C8.42059 23.0874 8.44626 23.1138 8.44547 23.166C8.44547 23.166 8.4198 23.1395 8.36845 23.0866ZM7.59823 22.2928L7.67643 22.294L7.59823 22.2928ZM7.67525 22.3722L7.75345 22.3733C7.70132 22.3725 7.67564 22.3461 7.67643 22.294L7.67525 22.3722ZM8.29261 22.929L8.21441 22.9278C8.26654 22.9286 8.29221 22.9551 8.29143 23.0072L8.29261 22.929C8.18991 22.8232 8.1125 22.7699 8.06036 22.7691C8.00901 22.7161 7.93199 22.6368 7.82929 22.5309L7.9075 22.5321L7.90632 22.6103L7.98452 22.6115L7.98334 22.6897C8.03547 22.6905 8.06115 22.7169 8.06036 22.7691L8.13856 22.7702L8.13738 22.8484L8.21559 22.8496L8.13738 22.8484C8.18873 22.9014 8.21441 22.9278 8.21441 22.9278L8.29261 22.929ZM7.83047 22.4527L7.82929 22.5309L7.83047 22.4527ZM8.29261 22.929L8.29143 23.0072L8.29261 22.929ZM8.06036 22.7691L8.06154 22.6909L7.98334 22.6897C8.03547 22.6905 8.06115 22.7169 8.06036 22.7691C8.1125 22.7699 8.13817 22.7963 8.13738 22.8484C8.08603 22.7955 8.06036 22.7691 8.06036 22.7691ZM7.98334 22.6897L7.98452 22.6115L7.98334 22.6897ZM7.98452 22.6115L7.90632 22.6103L7.98452 22.6115ZM7.82929 22.5309L7.9075 22.5321L7.82929 22.5309ZM8.75356 23.4835L8.75238 23.5617L8.75356 23.4835ZM8.44665 23.0878L8.36845 23.0866L8.44665 23.0878ZM7.82929 22.5309L7.83047 22.4527L7.82929 22.5309ZM8.29143 23.0072L8.36845 23.0866C8.3171 23.0337 8.29143 23.0072 8.29143 23.0072C8.34356 23.008 8.36924 23.0345 8.36845 23.0866C8.3171 23.0337 8.29143 23.0072 8.29143 23.0072ZM9.13631 24.0368C9.13631 24.0368 9.16199 24.0633 9.21333 24.1162C9.1612 24.1154 9.13553 24.089 9.13631 24.0368ZM9.67311 24.7489L9.67193 24.8271C9.67272 24.775 9.64704 24.7485 9.59491 24.7477C9.59491 24.7477 9.5953 24.7217 9.59609 24.6695C9.59609 24.6695 9.62176 24.696 9.67311 24.7489ZM8.98227 23.8781C9.0344 23.8789 9.06008 23.9053 9.05929 23.9574C9.11143 23.9582 9.1371 23.9847 9.13631 24.0368L9.13749 23.9586C9.08536 23.9578 9.05929 23.9574 9.05929 23.9574C9.06008 23.9053 9.0344 23.8789 8.98227 23.8781ZM9.75013 24.8283L9.67193 24.8271L9.74895 24.9065L9.75013 24.8283ZM8.98227 23.8781L8.98345 23.7999L8.98227 23.8781ZM9.74777 24.9847L9.74895 24.9065L9.74777 24.9847ZM9.44204 24.5108C9.49418 24.5116 9.51985 24.538 9.51906 24.5901L9.44204 24.5108ZM9.44322 24.4326C9.34053 24.3267 9.28957 24.2477 9.29036 24.1956C9.28957 24.2477 9.28918 24.2738 9.28918 24.2738C9.34131 24.2746 9.36699 24.301 9.3662 24.3532L9.44322 24.4326ZM9.67311 24.7489C9.62097 24.7481 9.5953 24.7217 9.59609 24.6695L9.67311 24.7489ZM9.59727 24.5913L9.51906 24.5901L9.59727 24.5913ZM9.59727 24.5913L9.59609 24.6695C9.49339 24.5637 9.44243 24.4847 9.44322 24.4326C9.44165 24.5368 9.493 24.5898 9.59727 24.5913L9.59609 24.6695L9.59727 24.5913ZM9.21333 24.1162C9.21255 24.1683 9.23822 24.1948 9.29036 24.1956C9.23822 24.1948 9.21255 24.1683 9.21333 24.1162ZM1.71739 18.0583C1.82323 17.9557 1.87655 17.8782 1.87734 17.8261L1.87616 17.9043C1.87616 17.9043 1.82323 17.9557 1.71739 18.0583ZM9.36738 24.275L9.3662 24.3532L9.36738 24.275ZM9.67193 24.8271L9.67311 24.7489L9.67193 24.8271ZM9.44204 24.5108L9.44322 24.4326L9.3662 24.3532L9.44322 24.4326L9.44204 24.5108ZM8.44429 23.2442L8.44547 23.166C8.44469 23.2181 8.47036 23.2446 8.5225 23.2454L8.44429 23.2442ZM8.44665 23.0878L8.36845 23.0866L8.44665 23.0878ZM8.59834 23.4029L8.67654 23.4041C8.6244 23.4033 8.59873 23.3769 8.59952 23.3247L8.59834 23.4029ZM8.44547 23.166L8.36845 23.0866C8.42059 23.0874 8.44626 23.1138 8.44547 23.166ZM8.5225 23.2454C8.5225 23.2454 8.54817 23.2718 8.59952 23.3247L8.52132 23.3236L8.5225 23.2454ZM8.44547 23.166L8.44665 23.0878C8.54778 23.2979 8.65008 23.4298 8.75356 23.4835L8.67536 23.4823L8.67654 23.4041C8.57384 23.2983 8.49643 23.245 8.44429 23.2442L8.44547 23.166ZM8.90761 23.6423L8.8294 23.6411L8.90761 23.6423ZM8.67654 23.4041C8.6244 23.4033 8.59834 23.4029 8.59834 23.4029C8.59912 23.3508 8.57345 23.3244 8.52132 23.3236C8.5221 23.2714 8.49682 23.2189 8.44547 23.166C8.44469 23.2181 8.47036 23.2446 8.5225 23.2454L8.52132 23.3236L8.59952 23.3247C8.59952 23.3247 8.62519 23.3512 8.67654 23.4041ZM8.90643 23.7205L8.98345 23.7999L8.90643 23.7205ZM8.98345 23.7999L8.98227 23.8781L8.98345 23.7999ZM8.90761 23.6423L8.90643 23.7205L8.90761 23.6423ZM8.8294 23.6411L8.83058 23.5629L8.8294 23.6411ZM8.83058 23.5629L8.8294 23.6411L8.98345 23.7999L8.75238 23.5617L8.83058 23.5629ZM8.67536 23.4823L8.67654 23.4041C8.67575 23.4563 8.67536 23.4823 8.67536 23.4823C8.72749 23.4831 8.75317 23.5096 8.75238 23.5617C8.70103 23.5088 8.67536 23.4823 8.67536 23.4823ZM9.13631 24.0368C9.03362 23.931 8.98227 23.8781 8.98227 23.8781L9.21333 24.1162L9.13631 24.0368ZM16.4803 24.617C16.218 24.7173 15.9822 24.792 15.7729 24.841C15.6165 24.8386 15.5379 24.8635 15.5371 24.9156C15.6406 24.9693 15.8235 24.946 16.0857 24.8457C16.4001 24.7461 16.7402 24.673 17.1059 24.6264C16.8436 24.7268 16.6078 24.8014 16.3985 24.8504C16.19 24.8473 15.9546 24.8959 15.6923 24.9962C15.483 25.0452 15.2737 25.0942 15.0644 25.1432C14.855 25.1921 14.6457 25.2411 14.4364 25.2901C14.0169 25.4402 13.6236 25.5907 13.2563 25.7416C12.9419 25.8412 12.6796 25.9415 12.4695 26.0426C12.4174 26.0419 12.3913 26.0415 12.3913 26.0415C12.4442 25.9901 12.4968 25.9648 12.5489 25.9656C12.5497 25.9135 12.5761 25.8878 12.6283 25.8886C12.6812 25.8372 12.7077 25.8116 12.7077 25.8116C12.7598 25.8124 12.8123 25.7871 12.8652 25.7357C12.9711 25.633 13.1026 25.5568 13.2598 25.507C13.417 25.4572 13.5485 25.381 13.6544 25.2783L14.0454 25.2842C14.306 25.2882 14.5414 25.2396 14.7515 25.1384C15.0659 25.0389 15.1185 25.0136 14.9091 25.0626C14.7006 25.0594 14.6228 25.0322 14.6757 24.9808C15.0944 24.8829 15.4866 24.8106 15.8523 24.7639C16.2188 24.6652 16.6375 24.5672 17.1082 24.47C17.2646 24.4724 17.2643 24.4984 17.1071 24.5482C16.9507 24.5459 16.7417 24.5688 16.4803 24.617ZM31.239 21.0851C31.0818 21.1349 30.8468 21.1574 30.534 21.1527C30.6382 21.1543 30.7686 21.1563 30.925 21.1586C31.0814 21.161 31.1861 21.1365 31.239 21.0851C31.6039 21.0906 31.8911 21.0689 32.1004 21.0199C31.9432 21.0697 31.6821 21.0918 31.3172 21.0863L31.239 21.0851ZM44.4658 20.5808C42.2746 20.652 40.1615 20.7244 38.1267 20.798C36.0919 20.8716 34.0831 20.9455 32.1004 21.0199C36.2238 20.7693 40.372 20.5972 44.5452 20.5037C46.945 20.4357 49.344 20.4197 51.7422 20.4559C54.1412 20.44 56.5923 20.4248 59.0956 20.4104C59.7212 20.4199 59.9293 20.4491 59.72 20.4981C59.5636 20.4957 59.2773 20.4653 58.861 20.4069C56.3577 20.4213 53.9066 20.4364 51.5076 20.4524C49.1607 20.4691 46.8135 20.5119 44.4658 20.5808ZM37.8968 20.4816C38.3668 20.4366 38.8364 20.4176 39.3056 20.4247C39.7748 20.4317 40.1398 20.4373 40.4005 20.4412C39.5142 20.4278 38.7839 20.4429 38.2096 20.4863C37.6353 20.5298 36.9307 20.5713 36.0958 20.6109C36.1487 20.5595 36.3316 20.5362 36.6444 20.5409C37.0101 20.4943 37.4276 20.4745 37.8968 20.4816ZM40.7133 20.4459C43.5317 20.2799 46.4007 20.2189 49.3203 20.2629C52.2406 20.2548 55.3434 20.2495 58.6287 20.247C55.8119 20.3087 52.9172 20.3433 49.9447 20.3506C46.973 20.3057 43.8959 20.3375 40.7133 20.4459ZM22.5133 18.7633C21.9904 18.8597 21.52 18.9308 21.1022 18.9767C20.6843 19.0225 20.3186 19.0691 20.005 19.1165C19.8493 19.062 20.0065 19.0123 20.4765 18.9672C20.9465 18.9222 21.3905 18.8767 21.8083 18.8309C22.1749 18.7321 22.6974 18.6618 23.3759 18.6199C24.0553 18.5258 24.8128 18.433 25.6485 18.3413C26.4843 18.2496 27.2935 18.1836 28.0763 18.1433C28.8599 18.0508 29.5385 18.0089 30.112 18.0175C29.8513 18.0136 29.277 18.0571 28.3891 18.148C27.5534 18.2397 26.6134 18.3298 25.5691 18.4183C25.047 18.4626 24.5249 18.5068 24.0027 18.5511C23.4806 18.5954 22.9841 18.6661 22.5133 18.7633ZM11.0804 19.6076C10.9232 19.6574 10.8707 19.6827 10.9229 19.6835C10.9758 19.6321 11.0287 19.5808 11.0816 19.5294C11.1867 19.4788 11.2392 19.4536 11.2392 19.4536C11.2921 19.4022 11.24 19.4014 11.0828 19.4512C11.0844 19.3469 11.2155 19.2968 11.4762 19.3007C11.7376 19.2525 11.9205 19.2292 12.0248 19.2308C11.9205 19.2292 11.7633 19.279 11.5532 19.3801L11.0804 19.6076ZM26.3284 14.7534C25.8039 14.9541 24.9931 15.1244 23.8959 15.2642C23.3208 15.3599 22.7201 15.429 22.0937 15.4717C21.4673 15.5144 20.8148 15.5567 20.1363 15.5986C20.2405 15.6002 20.5277 15.5784 20.9977 15.5334C21.4685 15.4362 22.0175 15.3402 22.6447 15.2454C23.324 15.1513 23.9768 15.0829 24.6033 15.0403C25.2826 14.9462 25.8576 14.8506 26.3284 14.7534ZM268.142 7.2954C268.194 7.29618 269.21 7.36366 271.189 7.49783C273.169 7.632 275.773 7.85381 279.001 8.16326C282.23 8.47272 285.874 8.86667 289.934 9.34512C294.047 9.77222 298.185 10.304 302.347 10.9404C306.561 11.5776 310.618 12.3167 314.516 13.1578C318.467 13.9475 321.921 14.86 324.878 15.8954C327.835 16.8787 330.114 17.956 331.713 19.1274C333.311 20.2987 333.84 21.5843 333.297 22.9841C332.7 24.5395 332.239 25.7058 331.914 26.4831C331.642 27.2612 331.296 27.7514 330.875 27.9536C330.507 28.1567 329.96 28.1484 329.233 27.9289C328.559 27.7101 327.521 27.3815 326.119 26.9432C324.718 26.5049 322.874 26.0338 320.587 25.53C318.352 25.0269 315.465 24.5662 311.925 24.1477C312.133 24.203 312.315 24.2579 312.47 24.3124C312.679 24.3156 312.913 24.3452 313.173 24.4012C313.797 24.5149 314.5 24.6038 315.281 24.6677C315.801 24.7798 316.191 24.8379 316.452 24.8418C316.659 24.8971 316.841 24.9259 316.998 24.9283C317.206 24.9314 317.441 24.961 317.7 25.0171C317.441 24.961 317.154 24.9306 316.841 24.9259C316.581 24.922 316.32 24.892 316.061 24.8359C315.696 24.8304 315.409 24.8 315.202 24.7447L314.341 24.7317C313.769 24.671 313.196 24.6362 312.622 24.6276C312.101 24.5676 311.555 24.5072 310.982 24.4464C309.837 24.3248 308.691 24.2293 307.545 24.1599C306.399 24.0904 305.227 23.9945 304.029 23.8721C303.457 23.8114 302.883 23.7766 302.31 23.768C301.789 23.708 301.243 23.6476 300.67 23.5868C300.41 23.5307 300.124 23.5003 299.811 23.4956C299.498 23.4909 299.212 23.4605 298.952 23.4044C298.691 23.4005 298.405 23.3962 298.092 23.3914C297.831 23.3875 297.571 23.3575 297.311 23.3014C296.217 23.2328 295.149 23.1645 294.107 23.0966C293.117 23.0296 292.127 22.9625 291.138 22.8954C290.408 22.8322 289.601 22.794 288.715 22.7806C287.881 22.7159 286.97 22.6239 285.981 22.5047C285.46 22.4968 284.938 22.489 284.417 22.4811C283.948 22.4219 283.428 22.3879 282.854 22.3793C282.333 22.3193 281.786 22.2849 281.213 22.2763C280.692 22.2684 280.145 22.2341 279.572 22.1733C277.28 22.0344 274.987 21.9216 272.694 21.8348C270.453 21.6967 268.344 21.5606 266.364 21.4264C266.624 21.4825 266.676 21.5094 266.519 21.507C266.415 21.5054 266.155 21.4754 265.738 21.417C265.373 21.4115 264.956 21.4052 264.487 21.3981C264.071 21.3397 263.732 21.3085 263.472 21.3046C263.784 21.3614 263.914 21.3895 263.861 21.3887C263.809 21.3879 263.679 21.3859 263.47 21.3828C263.262 21.3796 263.001 21.3757 262.688 21.371C262.376 21.3141 262.116 21.2841 261.908 21.281C262.22 21.3378 262.35 21.3659 262.297 21.3651C262.245 21.3643 262.115 21.3623 261.906 21.3592C261.699 21.3039 261.438 21.2739 261.126 21.2692C260.866 21.2131 260.631 21.1835 260.423 21.1803C260.422 21.2325 260.5 21.2597 260.656 21.2621C260.865 21.2652 261.021 21.2676 261.126 21.2692C260.5 21.2597 259.979 21.2519 259.562 21.2456C259.197 21.1879 258.859 21.1567 258.546 21.152C258.233 21.1473 257.92 21.1426 257.608 21.1379C257.347 21.1339 256.982 21.1284 256.513 21.1213C256.823 21.2825 256.717 21.4112 256.194 21.5076C255.724 21.5527 255.072 21.595 254.237 21.6345C253.455 21.6227 252.568 21.6093 251.578 21.5944C250.639 21.5802 249.857 21.5945 249.231 21.6372C249.179 21.5843 249.258 21.5594 249.466 21.5625C249.727 21.5665 250.014 21.5708 250.327 21.5755C250.691 21.581 251.056 21.5865 251.421 21.592C251.787 21.5454 252.1 21.5241 252.361 21.528L250.484 21.4997C250.171 21.495 249.859 21.4902 249.546 21.4855C249.285 21.4816 248.999 21.4512 248.687 21.3943L245.089 21.34C243.891 21.2698 242.875 21.2284 242.041 21.2158C241.259 21.1519 240.218 21.0579 238.916 20.934C238.343 20.8732 237.718 20.8377 237.04 20.8275C236.363 20.7651 235.66 20.7284 234.93 20.7174C234.514 20.659 234.123 20.627 233.758 20.6215C233.393 20.616 233.002 20.6101 232.585 20.6038C232.169 20.5454 231.752 20.513 231.335 20.5067C230.97 20.5012 230.579 20.4953 230.162 20.489C228.495 20.4117 226.801 20.3601 225.08 20.3341C223.413 20.2568 221.745 20.1534 220.079 20.024C220.495 20.0824 220.547 20.1092 220.234 20.1045C219.921 20.0998 219.452 20.0927 218.826 20.0833C218.513 20.0786 218.175 20.0734 217.81 20.0679C217.498 20.0111 217.185 19.9803 216.872 19.9756L215.934 19.9614L215.152 19.9496C215.205 19.8983 215.336 19.8742 215.544 19.8773C215.753 19.8804 215.935 19.8832 216.092 19.8856C216.3 19.8887 216.457 19.8911 216.561 19.8926C216.717 19.895 216.77 19.8697 216.718 19.8168C216.978 19.8729 217.03 19.8997 216.874 19.8974C216.769 19.8958 216.717 19.9211 216.716 19.9732C217.654 20.0395 218.253 20.0486 218.515 20.0003C218.776 19.9521 219.115 19.9573 219.531 20.0157C219.741 19.9667 219.663 19.9395 219.298 19.9339C218.985 19.9292 218.594 19.9233 218.125 19.9162C217.709 19.8578 217.292 19.8255 216.875 19.8192C216.51 19.8137 216.38 19.7856 216.485 19.7351C216.121 19.6774 215.756 19.6458 215.391 19.6403C215.026 19.6348 214.661 19.6293 214.296 19.6238L212.263 19.5931L208.197 19.5318C206.842 19.4592 205.539 19.4134 204.288 19.3945C203.089 19.3764 201.89 19.3584 200.69 19.3403C201.732 19.4081 202.852 19.4772 204.051 19.5474C205.25 19.5655 206.423 19.5832 207.57 19.6005C208.769 19.6186 209.916 19.662 211.01 19.7306C212.157 19.748 213.199 19.7637 214.138 19.7779C214.451 19.7826 214.685 19.8122 214.84 19.8667C214.997 19.869 214.841 19.8406 214.372 19.7814C211.296 19.735 208.585 19.6941 206.239 19.6587C203.946 19.5719 201.914 19.4891 200.142 19.4102L199.203 19.396C198.995 19.3929 198.786 19.4158 198.577 19.4648C198.42 19.4624 198.212 19.4593 197.951 19.4554L195.136 19.4129C194.145 19.3979 193.207 19.3838 192.32 19.3704C191.487 19.3057 190.836 19.2698 190.366 19.2627C190.366 19.2627 190.445 19.2639 190.601 19.2662C190.758 19.2686 190.914 19.2709 191.07 19.2733C191.279 19.2764 191.435 19.2788 191.54 19.2804C191.696 19.2827 191.722 19.3092 191.617 19.3598L197.091 19.4424C198.133 19.4581 199.098 19.4987 199.983 19.5642C200.921 19.5784 201.755 19.6171 202.484 19.6802C202.276 19.6771 202.067 19.6739 201.859 19.6708C201.651 19.6155 201.443 19.5863 201.234 19.5831L198.888 19.5477L189.582 19.4073L184.89 19.3365C184.472 19.3823 184.081 19.4025 183.716 19.397C183.351 19.3915 182.96 19.3856 182.543 19.3793L180.197 19.3439C178.684 19.3732 177.146 19.376 175.582 19.3524C174.017 19.3288 172.453 19.3313 170.888 19.3598C170.158 19.3488 169.402 19.3374 168.62 19.3256C167.838 19.3138 167.056 19.3281 166.273 19.3684L164.005 19.3342C163.588 19.3279 163.197 19.348 162.831 19.3947C162.466 19.3892 162.075 19.3833 161.658 19.377C160.145 19.4063 158.633 19.4356 157.12 19.4649C155.608 19.4421 154.096 19.4454 152.583 19.4747C152.166 19.4684 151.775 19.4625 151.41 19.457C151.045 19.4515 150.68 19.472 150.314 19.5187C149.897 19.5124 149.506 19.5065 149.141 19.501C148.828 19.4962 148.463 19.5168 148.045 19.5626C147.315 19.5516 146.559 19.5663 145.776 19.6066C145.046 19.5956 144.316 19.6106 143.585 19.6518C142.072 19.6811 140.586 19.7108 139.125 19.7409C137.664 19.771 136.204 19.8011 134.743 19.8312C134.378 19.8778 134.012 19.8984 133.647 19.8929C133.334 19.8882 132.996 19.8831 132.631 19.8776C132.265 19.9242 131.9 19.9447 131.535 19.9392C131.17 19.9337 130.804 19.9543 130.439 20.0009C129.708 20.042 129.004 20.0575 128.326 20.0473C127.648 20.037 126.944 20.0525 126.213 20.0936C125.222 20.1308 124.231 20.168 123.239 20.2051C122.249 20.1902 121.258 20.2013 120.266 20.2385C119.744 20.2828 119.249 20.3014 118.779 20.2943C118.31 20.2872 117.814 20.3058 117.292 20.3501L115.807 20.3276C115.545 20.3758 115.284 20.398 115.023 20.394C114.815 20.3909 114.58 20.3874 114.319 20.3834C112.337 20.4578 110.38 20.5326 108.45 20.6077C106.52 20.6307 104.564 20.6794 102.581 20.7538C102.111 20.7989 101.641 20.8439 101.171 20.889C100.702 20.8819 100.206 20.8744 99.685 20.8665C99.215 20.9116 98.7189 20.9563 98.1968 21.0005C97.7276 20.9934 97.2584 20.9864 96.7892 20.9793C95.797 21.0686 94.8053 21.1319 93.8139 21.169C92.8755 21.1549 91.9363 21.1929 90.9963 21.283C90.0049 21.3202 89.0396 21.3577 88.1004 21.3957C87.1612 21.4337 86.1959 21.4713 85.2046 21.5084L82.3857 21.7006C81.9165 21.6935 81.4209 21.7121 80.8987 21.7563C80.4295 21.7493 79.9599 21.7682 79.4899 21.8133C77.6115 21.8892 75.7326 21.9913 73.8534 22.1193C71.9742 22.2474 70.0954 22.3494 68.2169 22.4254C67.9563 22.4214 67.7213 22.444 67.5119 22.493C67.3034 22.4898 67.0688 22.4863 66.8081 22.4823L66.4953 22.4776L66.4171 22.4764L66.3377 22.5535L65.9467 22.5476L65.7121 22.544L65.0083 22.5334L62.193 22.4909C61.3059 22.5297 60.3931 22.542 59.4547 22.5278C58.5684 22.5144 57.6557 22.5267 56.7165 22.5647C53.1176 22.6147 49.57 22.7176 46.0738 22.8734C42.5784 22.9771 39.1083 23.1333 35.6635 23.3421C34.3064 23.4259 32.975 23.5362 31.6692 23.6729C30.4164 23.7583 29.3449 23.9246 28.4547 24.1719C30.593 24.1521 32.8893 24.0303 35.3436 23.8066C36.5443 23.7204 37.7185 23.6599 38.8662 23.6251C40.0669 23.5389 41.2672 23.4788 42.4671 23.4447C45.7547 23.2858 49.0155 23.1785 52.2495 23.1231C53.8151 23.0424 55.3799 23.0139 56.944 23.0375C58.561 23.0097 60.204 22.9824 61.8731 22.9554C60.3596 23.0369 58.8204 23.0919 57.2556 23.1204C55.6908 23.1489 53.9956 23.1755 52.1701 23.2001C52.3778 23.2554 52.7163 23.2865 53.1855 23.2936C53.6555 23.2486 54.1251 23.2296 54.5944 23.2367C55.0644 23.1916 55.4818 23.1718 55.8468 23.1773C56.2117 23.1829 56.4203 23.186 56.4724 23.1868C53.7598 23.2501 50.9947 23.3388 48.177 23.4527C45.3602 23.5145 42.5425 23.6284 39.7241 23.7945C36.9578 23.9613 34.2693 24.1554 31.6586 24.3767C29.0479 24.5981 26.6185 24.9003 24.3704 25.2836C24.0055 25.2781 24.0059 25.252 24.3716 25.2054C24.7374 25.1588 24.9728 25.1102 25.0778 25.0596C24.8179 25.0035 24.5569 25.0257 24.2946 25.126C24.0331 25.1742 23.7195 25.2216 23.3538 25.2683C23.9297 25.1205 24.453 24.998 24.9238 24.9008C25.3953 24.7515 25.6588 24.573 25.7141 24.3652C24.9826 24.4585 24.4597 24.5549 24.1453 24.6544C23.8838 24.7026 23.5442 24.7497 23.1263 24.7955C22.8135 24.7908 22.8664 24.7394 23.2851 24.6415C23.4422 24.5917 23.599 24.568 23.7555 24.5703C23.9126 24.5206 24.0177 24.47 24.0706 24.4186C23.8092 24.4668 23.5477 24.515 23.2862 24.5633C23.0777 24.5601 22.9991 24.585 23.0504 24.6379C22.6326 24.6838 22.4762 24.6814 22.5812 24.6308C22.6871 24.5281 22.7665 24.4511 22.8194 24.3998C22.5579 24.448 22.4007 24.4977 22.3478 24.5491C22.2957 24.5483 22.1393 24.5459 21.8786 24.542C21.9844 24.4393 22.1942 24.3643 22.5078 24.3168C22.8214 24.2694 23.1349 24.222 23.4485 24.1746C24.1816 23.9771 24.5224 23.8519 24.4711 23.7989C26.1433 23.5634 27.7366 23.3789 29.2509 23.2453C30.8173 23.1125 32.3572 23.0054 33.8707 22.9239C33.7143 22.9216 33.6622 22.9208 33.7143 22.9216C33.7664 22.9223 33.8182 22.9492 33.8695 23.0021C34.4446 22.9065 35.1496 22.8389 35.9845 22.7994C36.8203 22.7077 37.6821 22.6164 38.5699 22.5255C39.457 22.4868 40.318 22.4476 41.153 22.4081C41.9879 22.3685 42.6929 22.3009 43.268 22.2053C43.2166 22.1524 42.9824 22.1228 42.5653 22.1165C42.2004 22.111 41.8351 22.1315 41.4693 22.1782C42.7237 21.9885 44.108 21.8269 45.6223 21.6933C47.1887 21.5605 48.7026 21.453 50.164 21.3707C50.4768 21.3755 50.5546 21.4027 50.3974 21.4525C50.241 21.4501 50.3966 21.5046 50.8642 21.616C51.0728 21.6191 51.151 21.6203 51.0989 21.6195C51.0989 21.6195 51.0467 21.6187 50.9425 21.6171C50.8911 21.5642 50.8394 21.5374 50.7872 21.5366C50.788 21.4844 50.9187 21.4603 51.1794 21.4643C51.7008 21.4721 51.935 21.5018 51.8821 21.5531C53.0827 21.4669 54.439 21.4353 55.9509 21.4581C57.4629 21.4809 59.0534 21.4788 60.7225 21.4519L63.225 21.4896C63.4864 21.4414 63.9039 21.4216 64.4774 21.4303L65.6504 21.448L65.9632 21.4527L66.3542 21.4586L66.4324 21.4598L66.59 21.384L67.2156 21.3934C67.425 21.3444 67.7903 21.3239 68.3117 21.3317C68.6774 21.2851 69.0167 21.2641 69.3295 21.2689C69.6952 21.2222 70.0349 21.1752 70.3485 21.1278L77.6284 20.7683C78.8812 20.683 80.1075 20.6232 81.3074 20.5892C82.5602 20.5038 83.7866 20.4441 84.9865 20.4101C86.2393 20.3247 87.4917 20.2654 88.7437 20.2321C89.9966 20.1467 91.2233 20.0609 92.424 19.9748L96.1812 19.7968C96.494 19.8015 96.8069 19.8062 97.1197 19.811C97.4333 19.7636 97.7465 19.7422 98.0593 19.7469C98.3729 19.6995 98.6861 19.6782 98.9989 19.6829C99.3117 19.6876 99.6245 19.6923 99.9373 19.6971C102.494 19.5792 105.051 19.4613 107.608 19.3435C110.217 19.2264 112.852 19.1358 115.513 19.0717C118.173 19.0075 120.86 18.9438 123.572 18.8804C126.285 18.8171 129.049 18.7545 131.866 18.6927C129.519 18.7094 127.12 18.7254 124.669 18.7405C122.219 18.7036 119.716 18.7179 117.16 18.7837L115.283 18.7553C114.917 18.802 114.578 18.8229 114.265 18.8182C113.952 18.8135 113.639 18.8087 113.326 18.804C112.7 18.8467 112.048 18.863 111.37 18.8527C110.745 18.8433 110.093 18.8595 109.414 18.9014C108.11 18.9339 106.806 18.9664 105.501 18.9988C104.198 18.9791 102.894 18.9855 101.59 19.018C100.233 19.1018 98.9025 19.16 97.5983 19.1924C96.2949 19.1728 94.9647 19.2048 93.6076 19.2886C92.2513 19.3203 90.9211 19.3524 89.617 19.3849C88.3128 19.4173 86.9826 19.4494 85.6263 19.4811C82.9658 19.5452 80.331 19.6358 77.7219 19.7529C75.1657 19.8186 72.6095 19.8843 70.0534 19.95C69.6355 19.9959 69.218 20.0157 68.8009 20.0094C68.436 20.0039 68.0446 20.024 67.6267 20.0699L66.3755 20.051L66.3743 20.1292L66.2961 20.128L65.9833 20.1233L65.8269 20.1209L65.5141 20.1162L64.8896 20.0286L60.1193 19.9566C58.5552 19.933 57.0173 19.9098 55.5053 19.8869C53.9934 19.8641 52.4811 19.8674 50.9684 19.8967C47.9959 19.904 45.153 19.9654 42.4396 20.0809C39.7262 20.1964 37.1946 20.3667 34.8445 20.592C33.6439 20.6782 32.4693 20.7647 31.3207 20.8517C30.1722 20.9387 29.0758 21.0264 28.0315 21.1149C26.9343 21.2548 25.8632 21.3951 24.8181 21.5358C23.7738 21.6243 22.7288 21.765 21.6829 21.9578C19.6449 22.2399 17.7101 22.6018 15.8782 23.0435C15.4075 23.1407 14.9363 23.2639 14.4647 23.4133C14.046 23.5112 13.6274 23.6092 13.2087 23.7072C12.9465 23.8075 12.7107 23.8822 12.5014 23.9312C12.3442 23.9809 12.1605 24.0564 11.9504 24.1575C11.8983 24.1567 11.8458 24.182 11.7928 24.2334C11.7928 24.2334 11.7668 24.233 11.7146 24.2322L11.4006 24.3057L10.9279 24.5332C10.822 24.6359 10.6905 24.7121 10.5333 24.7619C10.3761 24.8117 10.2446 24.8879 10.1388 24.9906C10.0859 25.0419 10.0333 25.0672 9.9812 25.0664L9.98002 25.1446L9.90181 25.1435C9.79912 25.0376 9.74777 24.9847 9.74777 24.9847L9.82597 24.9859L9.82479 25.0641L9.82597 24.9859L9.90417 24.9871L9.90536 24.9089L9.98356 24.91C9.98434 24.8579 10.0108 24.8322 10.0629 24.833L10.0641 24.7548C9.95985 24.7532 9.85479 24.8038 9.74895 24.9065L9.75013 24.8283L9.67193 24.8271L9.67311 24.7489L9.75131 24.7501L9.75249 24.6719C9.85833 24.5692 10.0163 24.4673 10.2264 24.3662C10.2793 24.3148 10.3319 24.2895 10.384 24.2903L10.5428 24.1363L10.621 24.1375L10.7786 24.0616C10.7786 24.0616 10.8311 24.0363 10.9361 23.9858C11.4606 23.7851 12.0898 23.5599 12.8236 23.3103C13.6617 23.0622 14.4208 22.8651 15.1009 22.7189C15.8861 22.5221 16.697 22.3519 17.5335 22.208C18.4229 22.0129 19.312 21.8438 20.2006 21.7008C21.0893 21.5577 21.9775 21.4408 22.8654 21.3499C23.7541 21.2068 24.6423 21.0899 25.5302 20.999C25.4267 20.9453 25.1664 20.9153 24.7493 20.909C25.7936 20.8204 26.89 20.7327 28.0386 20.6457C29.1871 20.5588 30.3617 20.4722 31.5624 20.386C34.0175 20.1102 36.5496 19.9138 39.1587 19.7967L34.1537 19.7212C33.2666 19.7599 32.3535 19.7983 31.4143 19.8363C30.4758 19.8221 29.4845 19.8593 28.4402 19.9478C28.4402 19.9478 28.4923 19.9486 28.5966 19.9502C28.7009 19.9517 28.8312 19.9537 28.9876 19.9561C29.144 19.9584 29.2744 19.9604 29.3786 19.962C29.4829 19.9635 29.5086 19.99 29.4557 20.0414C29.0386 20.0351 28.569 20.0541 28.0468 20.0983C27.5255 20.0905 27.0037 20.1086 26.4816 20.1529C25.4373 20.2415 24.6012 20.3592 23.9732 20.5062C24.1802 20.6136 24.2833 20.6934 24.2825 20.7455C24.2825 20.7455 24.2043 20.7443 24.0479 20.742C23.9444 20.6882 23.8149 20.6341 23.6592 20.5796C23.5036 20.5252 23.4266 20.4458 23.4282 20.3415C23.064 20.2839 22.6473 20.2515 22.1781 20.2444C21.761 20.2381 21.5793 20.1832 21.6331 20.0797C21.1631 20.1248 20.7187 20.1963 20.3001 20.2943C19.9343 20.3409 19.49 20.4124 18.9671 20.5088C18.8644 20.403 18.9694 20.3524 19.2823 20.3572C19.648 20.3105 20.0141 20.2378 20.3806 20.1391C20.0678 20.1343 19.9639 20.1067 20.069 20.0561C20.1748 19.9534 20.0978 19.8741 19.8379 19.818C20.1002 19.7177 20.2827 19.7204 20.3854 19.8263C20.4888 19.88 20.6448 19.9084 20.8534 19.9115C21.167 19.8641 21.1934 19.8385 20.9328 19.8345C20.7242 19.8314 20.6989 19.7788 20.8569 19.6769C21.2748 19.6311 21.4833 19.6342 21.4825 19.6864C21.5339 19.7393 21.6634 19.7934 21.8712 19.8487C22.1334 19.7483 22.291 19.6725 22.344 19.6212C22.3969 19.5698 22.2409 19.5414 21.8759 19.5359C22.451 19.4403 23.0778 19.3715 23.7563 19.3296C24.4356 19.2355 25.0889 19.1411 25.7161 19.0463C26.2912 18.9507 26.8137 18.8803 27.2837 18.8353C27.7537 18.7902 28.0412 18.7424 28.1463 18.6919L29.7885 18.7166L31.9782 18.7497C32.1875 18.7007 32.1883 18.6486 31.9806 18.5933C31.7728 18.538 31.8518 18.487 32.2175 18.4404C33.731 18.359 35.2951 18.3826 36.9097 18.5112C38.5251 18.5877 40.193 18.639 41.9135 18.665C41.9135 18.665 41.9913 18.6922 42.1469 18.7467C42.3033 18.7491 42.4597 18.7514 42.6161 18.7538C42.7725 18.7561 42.8768 18.7577 42.9289 18.7585C42.981 18.7593 42.9024 18.7842 42.6931 18.8332C44.4665 18.8078 46.4737 18.8381 48.7147 18.924C50.9557 19.01 53.3279 19.0458 55.8311 19.0314C54.7379 18.9106 53.4874 18.8396 52.0798 18.8184C50.7243 18.7979 49.6563 18.7297 48.8758 18.6136C49.0844 18.6167 48.954 18.6148 48.4848 18.6077C48.0685 18.5493 47.5223 18.4628 46.8461 18.3483C46.1691 18.2859 45.5182 18.224 44.8934 18.1624C44.2694 18.0487 43.8799 17.9385 43.7251 17.8319C45.1335 17.801 46.6715 17.8242 48.339 17.9015C50.0074 17.9267 51.7274 17.9787 53.4992 18.0576C55.271 18.1365 57.0168 18.215 58.7364 18.2931C60.5082 18.372 62.203 18.3715 63.8208 18.2916C63.5601 18.2877 63.2733 18.2833 62.9605 18.2786C62.7006 18.2225 62.3882 18.1917 62.0233 18.1862C61.9719 18.1333 62.1287 18.1096 62.4937 18.1151C60.6705 17.9833 58.7688 17.8764 56.7884 17.7944C54.8602 17.7131 52.9842 17.6327 51.1602 17.553L51.9423 17.5648C51.9407 17.6691 51.7835 17.7188 51.4707 17.7141C51.2108 17.658 51.1073 17.6043 51.1602 17.553C49.8039 17.5847 48.5258 17.6175 47.3259 17.6516C46.1782 17.6864 45.0304 17.7212 43.8827 17.756C42.682 17.8422 41.5078 17.9027 40.36 17.9375C39.2123 17.9724 38.012 18.0325 36.7592 18.1179C36.3413 18.1637 36.1067 18.1602 36.0553 18.1072C36.004 18.0543 35.8219 18.0255 35.5091 18.0208C34.9862 18.1172 34.3333 18.1855 33.5505 18.2259C32.8206 18.2149 32.0378 18.2552 31.2021 18.3469C30.3671 18.3864 29.5583 18.4264 28.7754 18.4667C28.0448 18.5078 27.3923 18.5501 26.818 18.5936C27.3417 18.4451 28.0475 18.3253 28.9354 18.2344C29.8233 18.1435 30.7372 18.053 31.6772 17.9629C32.6172 17.8728 33.4786 17.8076 34.2614 17.7673C35.0971 17.6756 35.6726 17.5539 35.9878 17.4022C35.5707 17.3959 35.0229 17.4137 34.3443 17.4556C33.6666 17.4454 33.0141 17.4877 32.3869 17.5825C32.5425 17.637 32.881 17.6682 33.4024 17.6761C33.9245 17.6318 34.4466 17.5876 34.9688 17.5433C34.3937 17.6389 33.4802 17.7033 32.2281 17.7366C31.029 17.7185 29.6727 17.7502 28.1593 17.8316C27.3757 17.9241 26.5925 17.9905 25.8096 18.0308C25.0276 18.019 24.2709 18.0598 23.5394 18.153C22.7558 18.2455 21.9983 18.3383 21.2668 18.4316C20.5361 18.4727 19.8572 18.5407 19.23 18.6355C18.9686 18.6837 18.655 18.7311 18.2892 18.7778C17.9764 18.773 17.6368 18.8201 17.2702 18.9188C16.9037 19.0176 16.5376 19.0903 16.1719 19.1369C15.8583 19.1843 15.5703 19.2582 15.3081 19.3585C15.0466 19.4067 14.8373 19.4557 14.6801 19.5055C14.5751 19.5561 14.5747 19.5821 14.6789 19.5837C14.7311 19.5845 14.8879 19.5608 15.1493 19.5126C15.4629 19.4652 15.9333 19.394 16.5605 19.2992C15.9855 19.3948 15.3839 19.5161 14.756 19.6631C14.1288 19.7579 13.5012 19.8788 12.8732 20.0258C11.6188 20.2154 10.4414 20.4845 9.3411 20.8329C9.39403 20.7815 9.55161 20.7057 9.81386 20.6054C9.9197 20.5027 10.1298 20.4015 10.4442 20.302C10.7064 20.2017 10.9422 20.127 11.1516 20.078C11.413 20.0298 11.5967 19.9544 11.7025 19.8517C11.7025 19.8517 11.6768 19.8252 11.6255 19.7723L11.1563 19.7652C11.4185 19.6649 11.6543 19.5902 11.8636 19.5412C12.0738 19.4401 12.3099 19.3394 12.5722 19.239C12.7823 19.1379 12.992 19.0628 13.2013 19.0139C13.4115 18.9127 13.6476 18.812 13.9099 18.7117C14.0663 18.714 14.1445 18.7152 14.1445 18.7152C14.1445 18.7152 14.118 18.7409 14.0651 18.7922C14.013 18.7914 13.9605 18.8167 13.9075 18.8681C13.8546 18.9194 13.8803 18.9459 13.9846 18.9475C14.4032 18.8495 14.9783 18.7539 15.7097 18.6606C15.8669 18.6108 15.9455 18.5859 15.9455 18.5859C15.9455 18.5859 15.8934 18.5852 15.7891 18.5836C15.737 18.5828 15.6848 18.582 15.6327 18.5812C15.5814 18.5283 15.5818 18.5022 15.6339 18.503C15.9996 18.4564 16.5221 18.3861 17.2015 18.292C17.9329 18.1988 18.4033 18.1276 18.6127 18.0787C18.1956 18.0724 17.8302 18.0929 17.5166 18.1403C17.203 18.1878 16.8373 18.2344 16.4195 18.2802C16.0561 18.1704 15.4301 18.1871 14.5414 18.3301C13.6535 18.421 12.6863 18.5889 11.6397 18.8338C10.5409 19.078 9.51954 19.3755 8.5756 19.7263C8.31335 19.8266 8.07717 19.9273 7.86706 20.0284C7.70908 20.1304 7.5511 20.2323 7.39312 20.3342C7.18301 20.4353 6.99896 20.5368 6.84099 20.6387C6.73593 20.6893 6.63048 20.7659 6.52464 20.8686L6.6834 20.7146L6.84217 20.5605C6.89509 20.5092 6.92155 20.4835 6.92155 20.4835C6.92234 20.4314 6.94919 20.3796 7.00211 20.3283C7.10796 20.2256 7.16166 20.1221 7.16324 20.0178L7.40139 19.7868C7.45509 19.6833 7.66639 19.5039 8.03527 19.2488C8.19325 19.1469 8.37729 19.0454 8.5874 18.9442C8.84965 18.8439 9.1901 18.7447 9.60876 18.6468C9.3473 18.695 9.1119 18.7436 8.90257 18.7925C8.69325 18.8415 8.45746 18.9162 8.19521 19.0165C7.93375 19.0647 7.69836 19.1133 7.48903 19.1623C7.33184 19.2121 7.12212 19.2871 6.85987 19.3875C6.64976 19.4886 6.4661 19.5641 6.30891 19.6138C6.15251 19.6115 6.02178 19.6356 5.91672 19.6861C5.65447 19.7865 5.52453 19.7584 5.52689 19.602C5.74015 19.2924 6.03043 19.0621 6.39774 18.9112C6.39852 18.859 6.42498 18.8334 6.47712 18.8342C6.52925 18.8349 6.55532 18.8353 6.55532 18.8353C6.55611 18.7832 6.58257 18.7575 6.6347 18.7583C6.74055 18.6556 6.79347 18.6043 6.79347 18.6043C6.94987 18.6066 7.081 18.5565 7.18684 18.4538C7.76426 18.2017 8.20977 18.052 8.52336 18.0046C8.88988 17.9059 9.22955 17.8588 9.54236 17.8636C9.85517 17.8683 10.2201 17.8738 10.6372 17.8801C11.2667 17.6288 11.8694 17.4294 12.4453 17.2816C13.0219 17.0817 13.5982 16.9079 14.174 16.7601C14.8028 16.5611 15.4568 16.4145 16.1361 16.3204C16.8684 16.175 17.7049 16.0312 18.6457 15.889C18.1749 15.9862 17.7041 16.0834 17.2333 16.1806C16.8155 16.2264 16.4233 16.2987 16.0568 16.3975C15.1665 16.6448 14.6942 16.8462 14.6397 17.0018C15.1105 16.9046 15.5291 16.8067 15.8956 16.7079C16.2622 16.6091 16.6287 16.5104 16.9952 16.4116C17.3617 16.3129 17.7278 16.2402 18.0936 16.1935C18.4593 16.1469 18.9036 16.0754 19.4266 15.979C19.53 16.0327 19.4771 16.0841 19.2678 16.133C19.1114 16.1307 19.0067 16.1552 18.9538 16.2065C19.3717 16.1607 19.972 16.1176 20.7548 16.0773C21.5905 15.9856 22.4784 15.8947 23.4184 15.8046C24.3063 15.7137 25.1938 15.6489 26.0808 15.6101C26.9687 15.5192 27.6733 15.4777 28.1947 15.4856C28.6133 15.3876 28.8752 15.3133 28.9802 15.2627C29.0853 15.2122 29.3211 15.1375 29.6876 15.0388C31.1458 15.1651 32.3982 15.1057 33.4449 14.8608C34.4923 14.5637 35.5642 14.3713 36.6606 14.2836C36.9734 14.2883 37.0251 14.3151 36.8158 14.3641C36.6065 14.4131 36.3976 14.436 36.189 14.4329C36.6053 14.4913 36.9446 14.4704 37.2068 14.37C37.4691 14.2697 37.8091 14.1966 38.227 14.1508C38.0714 14.0963 37.9146 14.12 37.7566 14.2219C37.5994 14.2717 37.3384 14.2938 36.9734 14.2883C37.2878 14.1887 37.7582 14.1176 38.3846 14.0749C39.0118 13.9801 39.4826 13.8829 39.797 13.7834C38.6492 13.8182 37.6582 13.8293 36.8241 13.8167C36.0428 13.7528 35.0519 13.7639 33.8512 13.8501C34.3212 13.805 34.869 13.7872 35.4946 13.7967C36.121 13.754 36.7214 13.7109 37.2957 13.6674L40.3455 13.7134C40.9198 13.6699 41.4159 13.6253 41.8338 13.5794C42.3038 13.5344 42.7481 13.4629 43.1667 13.3649C42.5411 13.3555 41.654 13.3942 40.5055 13.4812C39.3577 13.516 38.3403 13.5528 37.4532 13.5916C37.1926 13.5876 37.1144 13.5864 37.2186 13.588C37.3237 13.5374 37.4023 13.5126 37.4544 13.5133C37.0895 13.5078 36.6981 13.528 36.2802 13.5738C35.8631 13.5676 35.3939 13.5605 34.8726 13.5526C35.0819 13.5036 35.369 13.4819 35.734 13.4874C36.0997 13.4408 36.4911 13.4206 36.9082 13.4269C37.3261 13.381 37.7175 13.3609 38.0824 13.3664C38.5003 13.3205 38.8139 13.2731 39.0232 13.2241C38.8147 13.221 38.5279 13.2167 38.163 13.2112C37.798 13.2057 37.4327 13.2262 37.0669 13.2728C36.7541 13.2681 36.467 13.2899 36.2055 13.3381C35.997 13.3349 35.8923 13.3594 35.8916 13.4115C35.6317 13.3555 35.2407 13.3496 34.7185 13.3938C34.2493 13.3868 33.7793 13.4318 33.3085 13.529C33.4641 13.5835 33.8026 13.6147 34.324 13.6225C34.0625 13.6707 33.5925 13.7158 32.914 13.7577C32.2883 13.7483 31.6363 13.7645 30.9577 13.8064C30.2792 13.8483 29.6528 13.891 29.0785 13.9345C28.5571 13.9266 28.2436 13.974 28.1377 14.0767C28.2933 14.1312 28.5801 14.1356 28.9979 14.0897C29.4166 13.9917 29.8084 13.9455 30.1733 13.951C29.7025 14.0482 29.2321 14.1193 28.7621 14.1644C28.2921 14.2094 27.7957 14.2802 27.2728 14.3766C26.6977 14.4722 26.123 14.5417 25.5488 14.5852C25.0266 14.6295 24.4259 14.6986 23.7466 14.7927C23.6431 14.739 23.6439 14.6868 23.7489 14.6363C23.8548 14.5336 24.0124 14.4577 24.2217 14.4087C24.4318 14.3076 24.6415 14.2326 24.8508 14.1836C25.1123 14.1354 25.3216 14.0864 25.4788 14.0366C25.3224 14.0342 25.1396 14.0576 24.9302 14.1065C24.7738 14.1042 24.6174 14.1018 24.461 14.0995C24.4618 14.0473 24.6447 14.024 25.0096 14.0295C25.4267 14.0358 25.766 14.0149 26.0274 13.9667C26.2889 13.9185 26.4457 13.8948 26.4978 13.8955C26.5507 13.8442 26.6558 13.7936 26.813 13.7439C26.5002 13.7391 26.2912 13.7621 26.1862 13.8126C26.0819 13.811 25.8473 13.8075 25.4824 13.802C25.5874 13.7514 25.7703 13.7281 26.031 13.7321C26.2916 13.736 26.5266 13.7135 26.736 13.6645C25.3789 13.7483 24.1513 13.8862 23.0534 14.0782C22.0083 14.2189 20.9913 14.2296 20.0023 14.1104C18.958 14.1989 17.9912 14.3408 17.1017 14.5359C16.2131 14.679 15.3501 14.8485 14.5128 15.0444C13.7284 15.189 12.9697 15.3601 12.2366 15.5576C11.5557 15.7559 10.8484 15.9799 10.1146 16.2296C10.1146 16.2296 10.062 16.2548 9.95697 16.3054C10.0612 16.307 10.1138 16.2817 10.1146 16.2296C10.3768 16.1292 10.6383 16.081 10.8989 16.085C11.1604 16.0368 11.4223 15.9625 11.6845 15.8622C11.9989 15.7626 12.2864 15.7148 12.5471 15.7187C12.8607 15.6713 13.1222 15.6231 13.3315 15.5741C13.4357 15.5757 13.2525 15.6251 12.7817 15.7223C12.363 15.8202 11.8658 15.9431 11.29 16.0909C11.0277 16.1912 10.7398 16.2651 10.4262 16.3125C10.1126 16.3599 9.82467 16.4338 9.56242 16.5341C9.30017 16.6344 9.06438 16.7091 8.85506 16.7581C8.69787 16.8079 8.56713 16.832 8.46286 16.8304C8.41073 16.8296 8.33213 16.8545 8.22708 16.9051C8.17415 16.9564 8.09517 17.0074 7.99011 17.0579C7.88427 17.1606 7.77921 17.2112 7.67494 17.2096C7.56988 17.2602 7.49089 17.3111 7.43797 17.3625C7.43797 17.3625 7.38544 17.3878 7.28039 17.4383C7.01814 17.5387 6.86055 17.6145 6.80763 17.6658C6.75471 17.7172 6.9119 17.6674 7.27921 17.5165C7.12123 17.6184 6.91072 17.7456 6.64769 17.8981C6.43757 17.9992 6.20139 18.0999 5.93914 18.2003C5.72903 18.3014 5.46599 18.4539 5.15004 18.6577L4.91189 18.8888C4.85975 18.888 4.78076 18.9389 4.67492 19.0416L4.99245 18.7335L5.07183 18.6565C5.07183 18.6565 5.01931 18.6818 4.91425 18.7324C4.86211 18.7316 4.80959 18.7568 4.75666 18.8082C4.70374 18.8595 4.65121 18.8848 4.59908 18.884C4.59908 18.884 4.57262 18.9097 4.5197 18.9611C4.15082 19.2162 3.83289 19.5504 3.56592 19.9635C3.56435 20.0678 3.5375 20.1195 3.48536 20.1188C3.48457 20.1709 3.45772 20.2226 3.4048 20.274C3.4048 20.274 3.40441 20.3 3.40362 20.3522C3.40283 20.4043 3.37637 20.43 3.32424 20.4292C3.32424 20.4292 3.32384 20.4553 3.32306 20.5074C3.32148 20.6117 3.29423 20.6895 3.24131 20.7408C3.23895 20.8972 3.21092 21.0272 3.15721 21.1307L3.15131 21.5217C3.15052 21.5738 3.1758 21.6263 3.22715 21.6793L3.22597 21.7575L3.22715 21.6793L3.22833 21.6011C3.2299 21.4968 3.23148 21.3925 3.23305 21.2883C3.28755 21.1326 3.3144 21.0809 3.31361 21.133L3.31007 21.3676C3.3085 21.4719 3.33339 21.5505 3.38474 21.6034L3.38356 21.6816L3.38238 21.7598C3.3808 21.8641 3.40569 21.9427 3.45704 21.9956C3.55659 22.31 3.65692 22.5722 3.75805 22.7824C4.01164 23.2555 4.21585 23.5454 4.37068 23.652L4.29366 23.5726C4.24153 23.5719 4.18978 23.545 4.13844 23.4921L3.90737 23.2539L3.59928 22.9364C3.49501 22.9348 3.4417 23.0122 3.43933 23.1687C3.59102 23.4838 3.7431 23.7729 3.89557 24.036C4.04883 24.2469 4.20169 24.4838 4.35416 24.7469C4.50742 24.9578 4.66068 25.1687 4.81393 25.3796C4.96798 25.5383 5.1477 25.7236 5.35309 25.9352C5.40365 26.0403 5.48028 26.1457 5.58298 26.2516C5.68567 26.3574 5.78876 26.4372 5.89225 26.4909C6.0455 26.7018 6.22522 26.887 6.4314 27.0466C6.84219 27.47 7.27983 27.8416 7.74432 28.1615C7.48601 28.0012 7.22769 27.8408 6.96938 27.6805C6.7632 27.5209 6.53134 27.3349 6.27382 27.1224C6.01629 26.91 5.75837 26.7236 5.50005 26.5632C5.29466 26.3515 5.06359 26.1134 4.80685 25.8488C4.55011 25.5842 4.29298 25.3456 4.03545 25.1332C3.83084 24.8693 3.60056 24.579 3.34461 24.2623C3.24349 24.0522 3.1159 23.8678 2.96186 23.709C2.85995 23.551 2.75883 23.3409 2.65849 23.0786C2.55815 22.8164 2.48389 22.5545 2.43569 22.2931C2.38748 22.0316 2.36535 21.7706 2.36928 21.5099C2.31951 21.3527 2.29659 21.1438 2.30052 20.8831L2.30642 20.4921C2.308 20.3878 2.30918 20.3096 2.30996 20.2575C2.36289 20.2061 2.39013 20.1283 2.39171 20.024C2.39328 19.9198 2.42053 19.842 2.47345 19.7906C2.47502 19.6863 2.50227 19.6085 2.55519 19.5572C2.55677 19.4529 2.61126 19.2973 2.71868 19.0903C2.82452 18.9876 2.87784 18.9102 2.87863 18.8581C2.98447 18.7554 3.03739 18.704 3.03739 18.704C3.0911 18.6005 3.14441 18.5231 3.19734 18.4718C3.25026 18.4204 3.30357 18.343 3.35728 18.2395L3.59543 18.0085C3.70127 17.9058 3.75419 17.8544 3.75419 17.8544C3.85925 17.8039 3.9647 17.7272 4.07054 17.6245C4.17639 17.5218 4.25538 17.4709 4.30751 17.4717C4.36043 17.4203 4.3869 17.3947 4.3869 17.3947C4.43903 17.3954 4.49156 17.3702 4.54448 17.3188L4.62268 17.32L4.70206 17.243C4.7542 17.2438 4.78027 17.2441 4.78027 17.2441C4.83319 17.1928 4.88572 17.1675 4.93785 17.1683C4.99077 17.117 5.14836 17.0411 5.41061 16.9408C5.77949 16.6856 6.12151 16.4822 6.43668 16.3305C6.75185 16.1788 7.06702 16.0271 7.38219 15.8754C7.69658 15.7759 7.98489 15.676 8.24714 15.5756C8.56231 15.4239 8.85102 15.2979 9.11327 15.1976C9.6899 14.9977 10.2661 14.8239 10.842 14.6761C11.4178 14.5284 12.0719 14.3818 12.8041 14.2364C12.5435 14.2325 12.4135 14.2045 12.4143 14.1523C12.4672 14.101 12.5201 14.0496 12.5731 13.9983C12.6781 13.9477 12.731 13.8964 12.7318 13.8442C12.7847 13.7929 12.6809 13.7652 12.4202 13.7613C12.1066 13.8087 12.0015 13.8593 12.105 13.913C12.2614 13.9154 12.2085 13.9667 11.9463 14.067C11.6848 14.1152 11.4759 14.1382 11.3195 14.1358C11.1631 14.1334 11.0327 14.1315 10.9284 14.1299C10.7728 14.0754 10.9047 13.9731 11.3242 13.823C9.65035 14.1628 8.75973 14.4361 8.65231 14.6431C7.65703 14.941 6.79208 15.2408 6.05747 15.5426C5.37578 15.793 4.7723 16.0447 4.24701 16.2975C4.14117 16.4002 4.08825 16.4515 4.08825 16.4515C3.9824 16.5542 3.90341 16.6052 3.85128 16.6044L3.61313 16.8354C3.56021 16.8868 3.50768 16.9121 3.45555 16.9113C3.45555 16.9113 3.42909 16.9369 3.37616 16.9883L3.13802 17.2194L2.89987 17.4504C2.84695 17.5018 2.79402 17.5531 2.7411 17.6045C2.74032 17.6566 2.71346 17.7084 2.66054 17.7597L2.58116 17.8367L2.57998 17.9149C2.52784 17.9141 2.50138 17.9398 2.50059 17.9919C2.50059 17.9919 2.47453 17.9916 2.42239 17.9908C2.42161 18.0429 2.39475 18.0946 2.34183 18.146C2.23599 18.2487 2.18306 18.3 2.18306 18.3C2.07565 18.507 2.02155 18.6366 2.02076 18.6887C1.91491 18.7914 1.83514 18.8945 1.78143 18.998C1.78064 19.0501 1.75379 19.1018 1.70087 19.1532L1.69851 19.3096C1.64559 19.3609 1.61873 19.4127 1.61794 19.4648C1.61716 19.5169 1.5903 19.5687 1.53738 19.62C1.53502 19.7764 1.50738 19.8803 1.45446 19.9317L1.45092 20.1663L1.44738 20.4009C1.39446 20.4522 1.36681 20.5561 1.36445 20.7125C1.36367 20.7646 1.33681 20.8164 1.28389 20.8677C1.28389 20.8677 1.2831 20.9199 1.28153 21.0241L1.27799 21.2587L1.27327 21.5716L1.26855 21.8844C1.3199 21.9373 1.34478 22.0159 1.34321 22.1202L1.33967 22.3548C1.33888 22.4069 1.3381 22.459 1.33731 22.5112C1.38945 22.512 1.41512 22.5384 1.41433 22.5905C1.41276 22.6948 1.43765 22.7734 1.48899 22.8263L1.48663 22.9827C1.5372 23.0878 1.56208 23.1664 1.5613 23.2185C1.5613 23.2185 1.58658 23.2711 1.63714 23.3761C1.63635 23.4283 1.66163 23.4808 1.71298 23.5337L1.71062 23.6901C1.76197 23.743 1.78725 23.7956 1.78646 23.8477C1.78568 23.8998 1.81096 23.9524 1.8623 24.0053L2.08983 24.478C2.14118 24.531 2.16646 24.5835 2.16567 24.6356C2.21702 24.6885 2.26837 24.7415 2.31972 24.7944C2.37028 24.8994 2.42084 25.0045 2.4714 25.1096C2.52196 25.2146 2.57252 25.3197 2.62309 25.4247C2.72421 25.6348 2.80044 25.7664 2.85179 25.8193C2.95291 26.0294 3.00308 26.1605 3.0023 26.2126L3.15634 26.3714C3.15477 26.4757 3.18005 26.5282 3.23218 26.529C3.28274 26.6341 3.30763 26.7126 3.30684 26.7648C3.35898 26.7656 3.41033 26.8185 3.46089 26.9235L3.22982 26.6854C3.17926 26.5803 3.10263 26.4749 2.99994 26.3691C2.89645 26.3153 2.81904 26.262 2.76769 26.2091C2.76848 26.157 2.74319 26.1044 2.69185 26.0515C2.6405 25.9986 2.58915 25.9457 2.5378 25.8928C2.53859 25.8406 2.51331 25.7881 2.46196 25.7352C2.00061 25.2067 1.64393 24.6538 1.39191 24.0764C1.34135 23.9713 1.29039 23.8924 1.23904 23.8394C1.1877 23.7865 1.13674 23.7075 1.08618 23.6025C1.08854 23.4461 1.03916 23.2628 0.938037 23.0527C0.836914 22.8426 0.787533 22.6593 0.789893 22.5029C0.690344 22.1885 0.641356 21.9792 0.642929 21.8749C0.646863 21.6143 0.623943 21.4053 0.574168 21.2481C0.575742 21.1439 0.577316 21.0396 0.578889 20.9353C0.632598 20.8318 0.660239 20.728 0.661812 20.6237C0.665746 20.363 0.694567 20.1809 0.748276 20.0774C0.74985 19.9732 0.75103 19.895 0.751817 19.8428C0.804738 19.7915 0.831986 19.7137 0.833559 19.6094C0.886481 19.5581 0.913729 19.4803 0.915302 19.376C0.916089 19.3239 0.916482 19.2978 0.916482 19.2978C0.968617 19.2986 0.995078 19.2729 0.995865 19.2208C0.996652 19.1686 1.02351 19.1169 1.07643 19.0655C1.13014 18.9621 1.15738 18.8842 1.15817 18.8321C1.21031 18.8329 1.18266 18.9368 1.07525 19.1437L1.07171 19.3783C1.01879 19.4297 0.991931 19.4814 0.991144 19.5336L1.07053 19.4566C1.07131 19.4044 1.12542 19.2749 1.23283 19.0679C1.34025 18.8609 1.42121 18.6796 1.4757 18.524C1.58155 18.4213 1.63486 18.3439 1.63565 18.2918C1.68857 18.2404 1.74149 18.1891 1.79441 18.1377C1.84733 18.0864 1.87379 18.0607 1.87379 18.0607C1.87458 18.0086 1.90144 17.9568 1.95436 17.9055C1.95514 17.8533 1.982 17.8016 2.03492 17.7503C2.08863 17.6468 2.1684 17.5437 2.27425 17.441L2.35363 17.364C2.3015 17.3632 2.22251 17.4141 2.11666 17.5168C2.11588 17.569 2.06256 17.6464 1.95672 17.7491C1.95672 17.7491 1.93026 17.7748 1.87734 17.8261C2.08981 17.5686 2.30189 17.3371 2.51358 17.1317C2.72526 16.9263 2.91049 16.7466 3.06925 16.5926C3.59769 16.1312 4.01949 15.8247 4.33466 15.673C4.75567 15.4186 5.15022 15.1899 5.51831 14.9869C5.88641 14.7839 6.22804 14.6065 6.54321 14.4548C6.91051 14.3039 7.25175 14.1526 7.56692 14.001C7.88209 13.8493 8.19687 13.7236 8.51125 13.6241C8.82563 13.5246 9.14002 13.425 9.4544 13.3255C9.76957 13.1738 10.0583 13.0478 10.3205 12.9474C11.4217 12.5469 12.5745 12.1732 13.7791 11.8263C15.0367 11.4281 16.2666 11.1338 17.4688 10.9434C16.9996 10.9363 16.5813 11.0082 16.214 11.1591C15.8475 11.2578 15.3767 11.355 14.8017 11.4506C15.6919 11.2033 16.7125 10.958 17.8634 10.7146C19.0143 10.4713 20.1909 10.2544 21.3931 10.0639C22.5432 9.8727 23.6147 9.70636 24.6077 9.5649C25.6527 9.42423 26.4628 9.30609 27.0378 9.21047C27.1958 9.10856 27.4048 9.08564 27.6646 9.14171C27.9253 9.14565 28.2385 9.1243 28.6043 9.07767C28.3451 8.96947 27.7195 8.96003 26.7274 9.04935C26.8846 8.99957 27.0418 8.9498 27.199 8.90003C27.4091 8.7989 27.1745 8.79536 26.4951 8.8894C26.8617 8.79064 27.306 8.71913 27.8281 8.67486C28.4032 8.57924 29.0304 8.48441 29.7097 8.39037C30.3882 8.34847 31.0668 8.30656 31.7453 8.26465C32.4239 8.22275 33.0507 8.15398 33.6257 8.05837C33.3658 8.0023 33.2359 7.97427 33.2359 7.97427C33.2367 7.92213 33.2639 7.84432 33.3176 7.74084C33.8398 7.69657 34.4397 7.67955 35.1175 7.68978C35.796 7.64787 36.3442 7.604 36.7621 7.55816C37.3364 7.51468 37.7013 7.52019 37.8569 7.57468C38.0647 7.62996 38.5078 7.63665 39.1864 7.59474C39.9178 7.50149 40.8574 7.43745 42.0052 7.40262C43.1537 7.31566 44.4062 7.25634 45.7625 7.22467C45.7095 7.27601 45.4745 7.29854 45.0575 7.29225C44.6925 7.28674 44.3011 7.3069 43.8832 7.35275C45.7087 7.32815 47.4043 7.27552 48.9699 7.19485C50.5885 7.06283 52.3105 6.98453 54.136 6.95993C51.5308 6.81632 48.8198 6.77541 46.003 6.83719C43.1869 6.84684 40.4486 6.88374 37.7882 6.94788C38.4161 6.80092 39.3297 6.73649 40.5288 6.75458C41.78 6.77346 42.9795 6.76549 44.1273 6.73067L58.1255 6.94192C58.0742 6.889 57.9182 6.86057 57.6575 6.85663C57.4489 6.85349 57.2404 6.85034 57.0319 6.84719C57.9189 6.80843 58.9103 6.77125 60.0059 6.73563C61.1537 6.70081 62.1703 6.71615 63.0558 6.78166C63.2644 6.78481 63.2904 6.7852 63.134 6.78284C63.0305 6.72913 63.0309 6.70306 63.1352 6.70464C63.4488 6.65722 63.762 6.63588 64.0748 6.6406C64.3876 6.64532 64.7004 6.65004 65.0132 6.65476L65.9517 6.66892L66.1081 6.67128L66.2657 6.59544C66.3178 6.59623 66.2131 6.62072 65.9517 6.66892C65.7431 6.66578 65.7431 6.66578 65.9517 6.66892L66.0311 6.5919L66.5003 6.59898C67.1267 6.55629 67.7527 6.53966 68.3783 6.5491C69.0568 6.5072 69.7097 6.43883 70.3369 6.344C71.6419 6.2594 72.9203 6.20047 74.1724 6.16722C75.4773 6.08262 76.8083 5.99841 78.1654 5.9146L82.1573 5.74018C82.8366 5.64614 83.4891 5.60384 84.1147 5.61328C84.7932 5.57137 85.4718 5.52947 86.1503 5.48756C87.5074 5.40375 88.838 5.34561 90.1422 5.31314C91.4985 5.28146 92.8552 5.22372 94.2123 5.1399C94.9429 5.09878 95.6211 5.08295 96.2467 5.09239C96.9252 5.05048 97.6299 5.00897 98.3605 4.96785C99.0912 4.92673 99.7694 4.91089 100.395 4.92033C101.074 4.87842 101.778 4.83691 102.509 4.79579C103.866 4.71198 105.248 4.68069 106.656 4.70193C108.064 4.67104 109.473 4.61408 110.882 4.53105L115.109 4.36018C115.84 4.31906 116.544 4.30361 117.221 4.31384C117.899 4.32407 118.603 4.30862 119.334 4.2675C120.795 4.18526 122.23 4.15476 123.638 4.176C125.046 4.14511 126.481 4.11461 127.941 4.08451C139.574 3.84288 151.335 3.70749 163.225 3.67834C175.167 3.64997 187.289 3.78076 199.591 4.07071C199.484 4.22555 198.962 4.29588 198.024 4.28172C198.91 4.29509 199.822 4.30886 200.761 4.32303C201.699 4.33719 202.663 4.37781 203.653 4.44489L209.362 4.53105L215.305 4.62074L218.277 4.66559C218.745 4.7248 219.214 4.75795 219.683 4.76503C220.205 4.7729 220.7 4.78038 221.169 4.78746C221.117 4.78667 220.987 4.7847 220.778 4.78156C220.57 4.77841 220.361 4.74919 220.154 4.69391C222.185 4.82887 224.296 4.93893 226.484 5.02411C228.674 5.05716 230.942 5.11745 233.287 5.20499C235.631 5.34467 237.976 5.48434 240.32 5.62402C242.718 5.71234 245.141 5.82713 247.59 5.96838L249.388 5.99552C249.596 6.0508 249.909 6.08159 250.326 6.08789L251.186 6.10087C251.811 6.16245 252.409 6.22363 252.982 6.28442C253.608 6.29386 254.233 6.32937 254.858 6.39095C256.056 6.46118 257.228 6.53101 258.375 6.60046C259.573 6.67069 260.771 6.76699 261.968 6.88935C262.542 6.89801 263.115 6.93273 263.688 6.99352C264.313 7.00296 264.912 7.03808 265.485 7.09887C265.745 7.15493 266.031 7.18533 266.344 7.19005C266.657 7.19477 266.944 7.1991 267.204 7.20303C267.412 7.25831 267.725 7.2891 268.142 7.2954ZM33.9149 9.62714C33.7064 9.62399 33.3932 9.64534 32.9753 9.69118C32.5582 9.68488 32.1408 9.70466 31.7229 9.7505C31.305 9.79634 30.9654 9.84336 30.7039 9.89156C30.4432 9.88763 30.365 9.88645 30.4693 9.88802C30.7821 9.89274 31.1471 9.89825 31.5641 9.90454C31.982 9.8587 32.3738 9.81247 32.7395 9.76584C33.1053 9.71921 33.3924 9.69747 33.6009 9.70062C33.8624 9.65242 33.9671 9.62793 33.9149 9.62714ZM30.7216 8.71852C30.1473 8.76201 29.7295 8.80785 29.468 8.85605C29.2595 8.8529 29.0505 8.87582 28.8412 8.92481C29.2591 8.87897 29.6505 8.8588 30.0154 8.86431C30.3804 8.86982 30.6158 8.82122 30.7216 8.71852ZM22.8778 10.1646C22.3027 10.2602 21.7798 10.3566 21.309 10.4538C20.839 10.4988 20.4468 10.5711 20.1324 10.6707C21.3339 10.5324 22.4054 10.366 23.347 10.1716C23.8178 10.0744 24.2882 10.0033 24.7582 9.95827C25.2803 9.91401 25.855 9.84446 26.4822 9.74963C26.6394 9.69986 26.6919 9.67458 26.6397 9.67379C26.6397 9.67379 26.509 9.69789 26.2476 9.74609C25.6725 9.8417 25.0978 9.91125 24.5236 9.95473C24.0014 9.999 23.4528 10.0689 22.8778 10.1646ZM20.6775 10.8353C20.1024 10.931 19.6056 11.0277 19.1869 11.1257C18.8204 11.2245 18.7153 11.275 18.8717 11.2774C19.1861 11.1779 19.5783 11.1056 20.0483 11.0605C20.5183 11.0154 21.0148 10.9447 21.5377 10.8483C22.0085 10.7511 22.4524 10.7057 22.8695 10.712C23.2874 10.6661 23.6274 10.593 23.8897 10.4927C23.5247 10.4872 23.0287 10.5319 22.4015 10.6267C21.8272 10.6702 21.2525 10.7397 20.6775 10.8353ZM11.2472 13.7436C11.3001 13.6923 11.2483 13.6654 11.0919 13.663C10.9355 13.6607 10.8838 13.6338 10.9367 13.5825C10.4138 13.6789 10.0733 13.778 9.91535 13.88C9.80951 13.9826 9.62547 14.0842 9.36322 14.1845L11.2472 13.7436ZM12.9012 12.9864C13.1113 12.8852 13.2693 12.7833 13.3751 12.6806C13.4802 12.6301 13.5588 12.6052 13.6109 12.606C13.6639 12.5546 13.7693 12.478 13.9273 12.3761C13.9794 12.3769 14.1627 12.3275 14.4771 12.2279C14.5813 12.2295 14.8949 12.1821 15.4179 12.0857C15.1564 12.1339 15.0257 12.158 15.0257 12.158C15.0264 12.1059 15.0529 12.0802 15.105 12.081C15.2101 12.0304 15.2626 12.0051 15.2626 12.0051C15.2634 11.953 15.1335 11.925 14.8728 11.921C14.5584 12.0206 14.218 12.1197 13.8514 12.2185C13.5378 12.2659 13.1717 12.3386 12.7531 12.4366C12.3865 12.5354 12.0196 12.6602 11.6523 12.8111C11.2858 12.9098 10.9193 13.0086 10.5528 13.1074C9.81895 13.357 9.18979 13.5822 8.6653 13.7829C8.14001 14.0357 7.79799 14.2391 7.63922 14.3931C7.90147 14.2928 8.13765 14.1921 8.34777 14.091C8.61001 13.9906 8.84619 13.8899 9.05631 13.7888L10.2364 13.3373C10.9181 13.0868 11.9391 12.8154 13.2993 12.5231C13.3507 12.576 13.088 12.7024 12.5114 12.9023C12.2491 13.0026 12.0133 13.0773 11.804 13.1262C11.5947 13.1752 11.4896 13.2258 11.4888 13.2779C12.2732 13.1333 12.744 13.0361 12.9012 12.9864ZM14.5411 13.1676C14.1224 13.2655 13.8863 13.3663 13.8326 13.4697C13.7789 13.5732 13.9353 13.5756 14.3018 13.4768C14.1983 13.4231 14.2251 13.3714 14.3823 13.3216C14.5917 13.2726 14.6446 13.2213 14.5411 13.1676ZM17.7474 13.2159C18.6882 13.0737 19.4734 12.877 20.1029 12.6257C19.9465 12.6234 19.7897 12.6471 19.6325 12.6969C19.4761 12.6945 19.529 12.6431 19.7913 12.5428C19.2162 12.6384 18.798 12.7103 18.5365 12.7585C18.2758 12.7546 18.0934 12.7518 17.9891 12.7503C17.8319 12.8 17.6751 12.8238 17.5187 12.8214C17.3623 12.819 17.0748 12.8668 16.6561 12.9648C17.179 12.8684 17.414 12.8459 17.3611 12.8972C17.3082 12.9486 17.151 12.9984 16.8895 13.0466C16.6273 13.1469 16.2868 13.246 15.8682 13.344C15.4503 13.3899 15.111 13.4108 14.8504 13.4069C14.8488 13.5112 14.8215 13.589 14.7686 13.6403C14.7165 13.6395 14.4803 13.7403 14.0601 13.9425C14.7923 13.7971 15.446 13.6766 16.021 13.581C16.649 13.434 17.2245 13.3123 17.7474 13.2159ZM30.0641 10.8206C30.482 10.7747 30.8734 10.7545 31.2384 10.7601C31.6562 10.7142 31.9437 10.6664 32.1009 10.6166C31.1088 10.7059 30.4299 10.7739 30.0641 10.8206ZM32.4137 10.6213C32.8324 10.5234 33.4327 10.4803 34.2148 10.4921C35.0497 10.4525 35.5722 10.3822 35.7824 10.2811C34.9995 10.3214 34.3471 10.3637 33.8249 10.408C33.3028 10.4523 32.8324 10.5234 32.4137 10.6213ZM31.1708 10.055C32.3714 9.96887 33.5982 9.88309 34.851 9.79771C36.156 9.71311 37.4348 9.62811 38.6876 9.54272C37.1749 9.57204 35.7922 9.6294 34.5394 9.71478C33.2866 9.80017 32.0598 9.88595 30.8591 9.97212C29.8149 10.0607 28.8223 10.176 27.8815 10.3183C26.9415 10.4084 26.0276 10.4989 25.1397 10.5898C25.1397 10.5898 25.1662 10.5641 25.2191 10.5128C25.1662 10.5641 25.0876 10.589 24.9833 10.5874C24.8791 10.5859 24.7744 10.6104 24.6693 10.6609C24.6172 10.6601 24.539 10.6589 24.4347 10.6574C24.0177 10.6511 23.4434 10.6946 22.7119 10.7878C22.0326 10.8819 21.3272 10.9755 20.5957 11.0688C20.1779 11.1146 19.7861 11.1608 19.4203 11.2075C19.0546 11.2541 18.6885 11.3268 18.322 11.4255C17.9562 11.4722 17.6166 11.5192 17.303 11.5666C16.9894 11.614 16.7018 11.6618 16.4404 11.71C17.1197 11.616 17.8247 11.5484 18.5554 11.5073C19.2861 11.4662 20.0175 11.3729 20.7498 11.2275C21.0112 11.1793 21.2198 11.1825 21.3754 11.237C21.5839 11.2401 21.8189 11.2176 22.0804 11.1694C22.6555 11.0738 23.1784 10.9774 23.6492 10.8802C24.12 10.783 24.5647 10.6854 24.9833 10.5874L25.1397 10.5898C25.0347 10.6404 25.0343 10.6664 25.1386 10.668C25.2428 10.6696 25.4257 10.6463 25.6872 10.5981C25.9486 10.5499 26.2097 10.5277 26.4704 10.5317C26.784 10.4842 26.9925 10.4874 27.096 10.5411C26.5217 10.5846 25.9731 10.6545 25.4502 10.7509C24.9281 10.7952 24.5106 10.815 24.1978 10.8102C24.3005 10.9161 24.6646 10.9737 25.2902 10.9832C25.9711 10.7849 26.8081 10.615 27.801 10.4735C28.846 10.3328 29.9693 10.1934 31.1708 10.055ZM39.2566 13.3059C39.5702 13.2585 39.9612 13.2644 40.4297 13.3236C40.951 13.3315 41.1603 13.2825 41.0576 13.1766C40.6927 13.1711 40.3017 13.1652 39.8846 13.1589C39.5197 13.1534 39.3103 13.2024 39.2566 13.3059ZM8.35398 18.8625C8.56409 18.7614 8.61701 18.71 8.51274 18.7084C8.3042 18.7053 8.09488 18.7543 7.88476 18.8554C7.67386 19.0087 7.64701 19.0604 7.8042 19.0106C7.96139 18.9609 8.14465 18.9115 8.35398 18.8625ZM28.2481 17.129C28.459 16.9757 28.382 16.8963 28.017 16.8908C27.5984 16.9888 27.154 17.0603 26.684 17.1054C26.2148 17.0983 25.9012 17.1457 25.7432 17.2476C26.1611 17.2018 26.5786 17.182 26.9957 17.1883C27.4127 17.1946 27.8302 17.1748 28.2481 17.129ZM24.7254 17.3105C25.1947 17.3176 25.6907 17.2729 26.2136 17.1765C26.7895 17.0288 27.0517 16.9284 27.0004 16.8755C26.7381 16.9758 26.3459 17.0481 25.8238 17.0924C25.3538 17.1375 24.9877 17.2101 24.7254 17.3105ZM27.4767 16.4134C26.7974 16.5074 26.327 16.5785 26.0655 16.6267C25.857 16.6236 25.8048 16.6228 25.9091 16.6244C26.0134 16.6259 26.1958 16.6287 26.4565 16.6326C26.7701 16.5852 27.1102 16.5121 27.4767 16.4134ZM16.3412 18.279C17.1778 18.1352 17.9614 18.0428 18.692 18.0016C19.4235 17.9084 19.9986 17.8128 20.4172 17.7148C20.2079 17.7638 19.8943 17.8112 19.4764 17.857C19.0593 17.8507 18.6158 17.8701 18.1458 17.9152C17.7272 18.0131 17.335 18.0854 16.9692 18.1321C16.6564 18.1274 16.4471 18.1763 16.3412 18.279ZM17.5984 17.9069C18.1213 17.8105 18.6435 17.7662 19.1648 17.7741C19.6869 17.7298 20.1834 17.6591 20.6542 17.5619C20.4456 17.5588 20.1846 17.5809 19.871 17.6283C19.6103 17.6244 19.3232 17.6461 19.0096 17.6935C18.7481 17.7417 18.4867 17.7899 18.2252 17.8382C17.9645 17.8342 17.7556 17.8571 17.5984 17.9069ZM22.3805 17.1969C21.9105 17.2419 21.7794 17.2921 21.9872 17.3474C22.1957 17.3505 22.4303 17.3541 22.691 17.358C22.8482 17.3082 23.005 17.2845 23.1614 17.2869C23.3186 17.2371 23.58 17.1889 23.9458 17.1423C23.8407 17.1928 23.6049 17.2675 23.2384 17.3663C22.8727 17.4129 22.8462 17.4386 23.159 17.4433C23.4213 17.343 23.787 17.2963 24.2562 17.3034C24.7262 17.2583 25.0402 17.1849 25.1982 17.083C24.8332 17.0775 24.6508 17.0747 24.6508 17.0747C25.0694 16.9767 25.5398 16.9056 26.062 16.8613C26.6362 16.8179 27.0284 16.7456 27.2385 16.6444C26.1429 16.68 25.0726 16.7682 24.0275 16.9089C22.9832 16.9974 22.0172 17.0871 21.1293 17.178C21.5993 17.1329 21.9133 17.0595 22.0713 16.9575C21.7055 17.0042 21.3137 17.0504 20.8959 17.0963C20.5309 17.0907 20.3477 17.1401 20.3461 17.2444C20.5546 17.2475 20.8414 17.2519 21.2063 17.2574C21.6242 17.2115 22.0156 17.1914 22.3805 17.1969ZM25.5786 17.7927C25.9964 17.7468 26.44 17.7275 26.9092 17.7345C27.4306 17.7424 27.9788 17.6985 28.5538 17.6029L28.5562 17.4465C27.5119 17.535 26.4941 17.5979 25.5027 17.6351C24.5635 17.6731 23.7274 17.7908 22.9944 17.9883C23.413 17.8904 23.8309 17.8445 24.248 17.8508C24.665 17.8571 25.1086 17.8377 25.5786 17.7927ZM25.151 20.2111C25.8817 20.1699 26.3773 20.1513 26.638 20.1553C26.8995 20.1071 27.0041 20.0826 26.952 20.0818C26.9007 20.0289 26.3003 20.072 25.151 20.2111ZM23.594 19.7182C24.7892 19.997 26.6664 19.9993 29.2258 19.725C29.0172 19.7219 28.7301 19.7436 28.3644 19.7902C28.0516 19.7855 27.7648 19.7812 27.5041 19.7772C27.1905 19.8247 26.9816 19.8476 26.8773 19.846C26.7731 19.8444 26.8781 19.7939 27.1925 19.6943C26.4618 19.7354 25.8358 19.7521 25.3145 19.7442C24.7939 19.6842 24.2204 19.6755 23.594 19.7182ZM28.2213 24.0902C28.4835 23.9898 28.771 23.942 29.0838 23.9468C29.3974 23.8993 29.7636 23.8267 30.1822 23.7287C29.4508 23.8219 28.7718 23.8899 28.1454 23.9326C27.5711 23.9761 26.8401 24.0433 25.9522 24.1342C25.8471 24.1847 25.8468 24.2108 25.951 24.2124C26.0553 24.2139 26.1856 24.2159 26.342 24.2183C26.4984 24.2206 26.6288 24.2226 26.733 24.2242C26.8902 24.1744 26.9684 24.1756 26.9677 24.2277C26.5506 24.2214 26.2895 24.2435 26.1844 24.2941C26.0794 24.3447 26.0261 24.4221 26.0245 24.5264C26.5474 24.43 26.9657 24.358 27.2793 24.3106C27.645 24.264 27.959 24.1905 28.2213 24.0902ZM44.2823 22.3771C43.9702 22.3202 43.6574 22.3155 43.3438 22.3629C43.031 22.3582 42.6661 22.3527 42.249 22.3464C42.249 22.3464 42.3533 22.3479 42.5618 22.3511C42.8233 22.3029 43.0843 22.2808 43.345 22.2847C43.6057 22.2886 43.8142 22.2918 43.9706 22.2941C44.1792 22.2973 44.283 22.3249 44.2823 22.3771ZM66.6361 18.3341C67.5223 18.3474 68.6172 18.364 69.9206 18.3836C71.2768 18.352 72.3203 18.3156 73.051 18.2744C71.8519 18.2563 70.7049 18.239 69.6101 18.2225C68.5153 18.206 67.5239 18.2432 66.6361 18.3341ZM69.4584 17.9073C70.9695 17.9823 71.6212 17.9921 71.4135 17.9368C71.2065 17.8294 70.5548 17.8196 69.4584 17.9073ZM72.8211 17.9581C73.2911 17.913 73.7603 17.9201 74.2288 17.9793C74.6972 18.0385 75.0886 18.0184 75.403 17.9188C74.8287 17.9623 74.3334 17.9548 73.9171 17.8964C73.5008 17.838 73.1355 17.8585 72.8211 17.9581ZM85.497 17.6801C86.3841 17.6413 87.2443 17.6543 88.0777 17.719C88.964 17.7324 89.7464 17.7181 90.4249 17.6762C90.1121 17.6715 89.6429 17.6644 89.0173 17.655C88.3917 17.6455 87.7661 17.6361 87.1404 17.6266C86.5148 17.6172 86.0191 17.6358 85.6534 17.6824C85.2885 17.6769 85.2363 17.6761 85.497 17.6801ZM82.1437 17.0037C83.083 16.9657 84.1 16.955 85.1948 16.9715C86.3426 16.9367 87.4639 16.9275 88.5587 16.9441C89.7057 16.9614 90.8009 16.9518 91.8444 16.9154C92.94 16.8798 93.9318 16.8166 94.8196 16.7257C93.4633 16.7573 92.1074 16.763 90.7519 16.7425C89.3964 16.722 87.9884 16.7269 86.5278 16.757C86.1107 16.7507 85.6932 16.7705 85.2754 16.8163C84.8583 16.81 84.4412 16.8037 84.0241 16.7974C83.6071 16.7911 83.1896 16.8109 82.7717 16.8567C82.4068 16.8512 82.0154 16.8714 81.5975 16.9172C80.7626 16.9568 79.9797 16.9971 79.2491 17.0382C78.5192 17.0272 77.8414 17.017 77.2158 17.0075C77.1637 17.0068 77.1897 17.0072 77.294 17.0087C77.4512 16.959 77.3473 16.9313 76.9824 16.9258C75.9389 16.9622 74.5822 17.0199 72.9123 17.099C71.2953 17.1268 69.704 17.181 68.1384 17.2617C68.9197 17.3256 69.832 17.3394 70.8755 17.303C71.9711 17.2674 72.8835 17.2811 73.6126 17.3443C72.3606 17.3775 71.1871 17.3859 70.0923 17.3694C69.0496 17.3536 68.0065 17.364 66.963 17.4004L66.2592 17.3897L66.1028 17.3874L66.0246 17.3862L65.9464 17.385L65.7118 17.3815L65.3208 17.3756L63.8349 17.3532C63.3136 17.3453 62.7922 17.3374 62.2709 17.3296C61.8017 17.3225 61.2799 17.3407 60.7056 17.3842C61.1227 17.3904 61.4877 17.396 61.8005 17.4007C62.1654 17.4062 62.3992 17.4619 62.5019 17.5677C61.2531 17.3924 59.768 17.3179 58.0468 17.344C56.3777 17.371 54.9428 17.4275 53.7421 17.5137C54.9925 17.5847 56.3212 17.6569 57.7281 17.7303C59.1349 17.8037 60.5939 17.8779 62.105 17.9528C62.47 17.9583 62.8345 17.9899 63.1987 18.0475C63.5636 18.053 63.9286 18.0585 64.2935 18.0641L65.4666 18.0818L66.091 18.1694L66.796 18.1018C67.5259 18.1128 68.2558 18.1239 68.9857 18.1349C69.7685 18.0945 70.5252 18.0538 71.2559 18.0127C70.8388 18.0064 70.3171 18.0246 69.6907 18.0673C69.1172 18.0586 68.5437 18.05 67.9702 18.0413C67.7095 18.0374 67.4485 18.0595 67.187 18.1077C66.9263 18.1038 66.6661 18.0738 66.4062 18.0177L66.328 18.0165L66.2498 18.0154L66.0934 18.013L66.0152 18.0118L65.8587 18.0095L65.5459 18.0047C65.4417 18.0032 65.3635 18.002 65.3113 18.0012C65.26 17.9483 65.2082 17.9214 65.1561 17.9206L65.7035 17.9289L66.0163 17.9336L66.0945 17.9348L66.2509 17.9372L66.3291 17.9383L66.4855 17.9407L67.424 17.9549C67.7368 17.9596 68.0496 17.9643 68.3624 17.969C68.676 17.9216 68.9631 17.8999 69.2238 17.9038L67.1905 17.8731L66.3303 17.8601L66.2521 17.859L66.0957 17.8566L66.0175 17.8554C66.0183 17.8033 65.9666 17.7764 65.8623 17.7749L65.6277 17.7713L65.9405 17.776L66.0187 17.7772L66.0969 17.7784L66.2533 17.7808L66.4097 17.7831C66.6182 17.7863 66.8011 17.7629 66.9583 17.7132L68.0531 17.7297C68.4181 17.7352 68.757 17.7403 69.0698 17.745C69.4347 17.7505 69.774 17.7296 70.0876 17.6822L73.3721 17.7317C73.0593 17.727 72.6943 17.7215 72.2772 17.7152C71.8602 17.7089 71.7816 17.7338 72.0415 17.7899C72.6671 17.7993 73.3448 17.8096 74.0747 17.8206C74.8575 17.7802 75.6139 17.7656 76.3438 17.7766C77.0737 17.7876 77.7514 17.7978 78.377 17.8073C79.0556 17.7654 79.6299 17.7219 80.0999 17.6768C79.9964 17.6231 79.7618 17.6196 79.396 17.6662C79.0303 17.7128 78.8218 17.7097 78.7704 17.6568C79.7618 17.6196 80.5442 17.6053 81.1177 17.614C81.7433 17.6234 82.4218 17.5815 83.1533 17.4883C82.8405 17.4835 82.5012 17.5045 82.1355 17.5511C81.8227 17.5464 81.641 17.4915 81.5904 17.3864C82.0075 17.3927 82.19 17.3955 82.1378 17.3947C82.1386 17.3426 82.3219 17.2932 82.6876 17.2466C84.3046 17.2188 85.8426 17.242 87.3016 17.3162C88.8135 17.339 90.3001 17.3093 91.7615 17.2271C90.6666 17.2105 89.4936 17.1928 88.2424 17.174C86.9911 17.1551 85.7395 17.1623 84.4875 17.1955L82.6106 17.1672C82.297 17.2146 81.9838 17.2359 81.671 17.2312C81.4103 17.2273 81.1236 17.223 80.8108 17.2182C80.2373 17.2096 79.6634 17.227 79.0891 17.2705C78.5156 17.2618 77.9682 17.2536 77.4469 17.2457C77.8126 17.1991 78.2561 17.1797 78.7775 17.1876C79.351 17.1962 79.9245 17.2049 80.4979 17.2135C81.0722 17.17 81.6461 17.1526 82.2196 17.1613C82.7931 17.1699 83.2887 17.1513 83.7066 17.1055C83.3417 17.1 83.0289 17.0953 82.7682 17.0913C82.5604 17.0361 82.3523 17.0068 82.1437 17.0037ZM132.34 18.387L133.748 18.4082L136.563 18.4507C137.554 18.4657 138.466 18.4794 139.3 18.492C140.187 18.4533 140.996 18.4133 141.727 18.3722C140.736 18.3573 139.798 18.3692 138.91 18.4079C138.076 18.3953 137.216 18.3823 136.33 18.369L133.749 18.33C133.331 18.3759 132.888 18.3952 132.418 18.3882C132.001 18.3819 131.558 18.3752 131.089 18.3681L132.34 18.387ZM124.661 19.288C128.574 19.1384 132.435 19.0402 136.242 18.9934C140.05 18.8944 143.859 18.7955 147.667 18.6965C143.755 18.7418 139.869 18.8135 136.009 18.9117C132.201 18.9585 128.341 19.0567 124.428 19.2062C123.488 19.2442 122.523 19.2818 121.532 19.319C120.593 19.3048 119.655 19.3167 118.715 19.3547C118.245 19.3997 117.776 19.4187 117.307 19.4116C116.837 19.4046 116.342 19.4231 115.819 19.4674C115.35 19.4603 114.881 19.4793 114.411 19.5244C113.941 19.5173 113.472 19.5363 113.002 19.5813C111.071 19.6565 109.167 19.732 107.288 19.808C105.411 19.8318 103.533 19.8817 101.654 19.9576C103.533 19.8817 105.437 19.8322 107.367 19.8092C109.297 19.734 111.228 19.6589 113.158 19.5837C113.627 19.5908 114.097 19.5979 114.566 19.6049C115.036 19.5599 115.532 19.5152 116.054 19.471C116.523 19.478 116.993 19.4851 117.462 19.4922C117.932 19.4471 118.427 19.4285 118.949 19.4364C119.888 19.3984 120.827 19.3865 121.765 19.4007C122.757 19.3635 123.722 19.3259 124.661 19.288ZM182.612 4.44024C183.394 4.45204 184.176 4.46384 184.958 4.47564C185.741 4.43531 186.523 4.42104 187.305 4.43284L184.021 4.38328L182.378 4.35849L180.736 4.33371L174.167 4.23457C171.977 4.25367 169.813 4.24708 167.675 4.21482C165.59 4.18335 163.478 4.17756 161.339 4.19743C159.201 4.21731 157.089 4.23758 155.003 4.25824C152.917 4.27891 150.83 4.29957 148.744 4.32023C146.657 4.39303 144.571 4.43976 142.484 4.46043C140.451 4.42974 138.417 4.45119 136.382 4.52478C134.347 4.59836 132.313 4.67195 130.278 4.74554C128.296 4.76777 126.314 4.81608 124.331 4.89045L118.462 5.03654C117.94 5.08081 117.444 5.12547 116.974 5.17052C116.505 5.16344 116.009 5.15597 115.488 5.1481C115.018 5.19316 114.522 5.23782 114 5.28208C113.531 5.275 113.061 5.26792 112.592 5.26084C110.662 5.336 108.731 5.41116 106.8 5.48632C104.922 5.56226 103.018 5.63782 101.087 5.71297L98.2682 5.9051C97.799 5.89801 97.3293 5.917 96.8593 5.96205C96.4423 5.95576 95.9987 5.97514 95.5287 6.02019C94.5895 6.05817 93.6503 6.09614 92.7111 6.13411C91.7719 6.17209 90.8587 6.21045 89.9716 6.24921C89.6059 6.29584 89.3701 6.3705 89.2643 6.4732C89.2113 6.52454 88.9242 6.54628 88.4029 6.53842C88.4029 6.53842 88.4811 6.5396 88.6375 6.54196C88.7947 6.49218 88.9515 6.46848 89.1079 6.47084C89.265 6.42106 89.3436 6.39617 89.3436 6.39617C89.3966 6.34483 89.2666 6.31679 88.9538 6.31207C88.0659 6.40297 87.1524 6.4674 86.2132 6.50537C85.274 6.54335 84.3348 6.58132 83.3955 6.61929C82.9255 6.66435 82.4555 6.7094 81.9855 6.75445C81.5163 6.74737 81.0728 6.76675 80.6549 6.81259C80.237 6.85843 79.8196 6.87821 79.4025 6.87191C79.0375 6.86641 78.6722 6.88696 78.3065 6.93359C79.0348 7.04888 80.0254 7.06383 81.2782 6.97844C82.531 6.89305 83.7052 6.83255 84.8008 6.79694C85.0623 6.74874 85.4537 6.72857 85.975 6.73644C86.5493 6.69296 87.1232 6.67555 87.6967 6.6842C88.3231 6.64151 88.8709 6.6237 89.3401 6.63078C89.8622 6.58651 90.228 6.53989 90.4373 6.4909C90.4373 6.4909 90.3848 6.51618 90.2797 6.56674C90.2276 6.56595 90.1494 6.56477 90.0451 6.5632C89.993 6.56241 89.993 6.56241 90.0451 6.5632C90.0972 6.56399 90.2537 6.56635 90.5143 6.57028C91.9741 6.59231 93.4868 6.56299 95.0524 6.48233C96.618 6.40166 98.1315 6.32021 99.5929 6.23797C99.0715 6.2301 98.4716 6.24712 97.793 6.28903C97.1153 6.2788 96.4375 6.26857 95.7598 6.25834C95.1342 6.2489 94.5085 6.23946 93.8829 6.23002C93.2573 6.22058 92.736 6.21271 92.3189 6.20641C93.0496 6.16529 93.7538 6.14985 94.4315 6.16008C95.1622 6.11896 95.8925 6.1039 96.6224 6.11492C96.9865 6.17256 97.325 6.20374 97.6378 6.20846C98.0028 6.21397 98.3677 6.21948 98.7327 6.22499L100.844 6.25685C102.357 6.22753 104.026 6.17451 105.853 6.09777C107.68 5.96891 109.48 5.86571 111.254 5.78819C112.037 5.74786 112.82 5.7336 113.602 5.7454C114.437 5.70585 115.246 5.66591 116.028 5.62558C116.811 5.58524 117.594 5.57098 118.376 5.58278C119.158 5.54245 119.967 5.50251 120.802 5.46296C122.367 5.43443 123.932 5.4059 125.497 5.37737C127.114 5.34962 128.731 5.29581 130.349 5.21593C131.132 5.1756 131.914 5.16133 132.696 5.17313C133.531 5.13359 134.34 5.11971 135.122 5.13152C135.904 5.09118 136.687 5.07692 137.469 5.08872C138.304 5.04917 139.113 5.00923 139.895 4.9689C141.512 4.94115 143.103 4.91302 144.668 4.88448C146.285 4.85674 147.902 4.829 149.519 4.80125C151.084 4.77272 152.649 4.74419 154.214 4.71566C155.831 4.68791 157.448 4.66017 159.065 4.63242C159.847 4.64422 160.629 4.65603 161.411 4.66783C162.193 4.62749 163.002 4.58755 163.837 4.54801L166.183 4.58341C166.601 4.53757 166.993 4.51741 167.358 4.52291C167.722 4.52842 168.113 4.53432 168.531 4.54062C170.148 4.51287 171.738 4.5108 173.302 4.5344C174.867 4.50587 176.432 4.47734 177.997 4.44881C178.779 4.46061 179.561 4.47241 180.343 4.48421C181.125 4.44388 181.882 4.42922 182.612 4.44024ZM191.147 19.3527C190.626 19.3448 190.026 19.3358 189.349 19.3255C188.724 19.264 188.281 19.2573 188.019 19.3055C188.488 19.3126 189.062 19.3473 189.739 19.4096C190.416 19.4199 190.886 19.4009 191.147 19.3527ZM249.555 20.8599C250.129 20.8685 250.78 20.9044 251.509 20.9676C252.291 20.9794 252.917 20.9888 253.386 20.9959C252.657 20.9328 251.927 20.8957 251.197 20.8847C250.52 20.8223 249.973 20.8141 249.555 20.8599Z" fill="url(#paint0_linear_2736_12050)"/>
<defs>
<linearGradient id="paint0_linear_2736_12050" x1="81.1819" y1="-24.4962" x2="159.661" y2="138.021" gradientUnits="userSpaceOnUse">
<stop stop-color="#FFB524"/>
<stop offset="1" stop-color="#FF8C39"/>
</linearGradient>
</defs>
</svg>
