<svg width="32" height="32" viewBox="0 0 32 32" fill="none" xmlns="http://www.w3.org/2000/svg">
<rect width="32" height="32" rx="16" fill="white"/>
<path d="M21.9283 10.6966C22.6248 11.393 23.1772 12.2198 23.5542 13.1298C23.9311 14.0397 24.1251 15.015 24.1251 15.9999C24.1251 16.9848 23.9311 17.9601 23.5542 18.8701C23.1772 19.78 22.6248 20.6068 21.9283 21.3032M19.7192 12.9066C20.5395 13.727 21.0003 14.8397 21.0003 15.9999C21.0003 17.1601 20.5395 18.2728 19.7192 19.0932M11.625 12.8749L15.5583 8.94157C15.6457 8.85428 15.7571 8.79484 15.8782 8.77077C15.9994 8.7467 16.125 8.75907 16.2391 8.80633C16.3532 8.85359 16.4508 8.93362 16.5195 9.0363C16.5882 9.13898 16.6249 9.25971 16.625 9.38324V22.6166C16.6249 22.7401 16.5882 22.8608 16.5195 22.9635C16.4508 23.0662 16.3532 23.1462 16.2391 23.1935C16.125 23.2407 15.9994 23.2531 15.8782 23.229C15.7571 23.205 15.6457 23.1455 15.5583 23.0582L11.625 19.1249H9.75834C9.025 19.1249 8.33834 18.7024 8.14334 17.9966C7.9646 17.3461 7.87435 16.6745 7.875 15.9999C7.875 15.3082 7.96834 14.6391 8.14334 14.0032C8.33834 13.2966 9.025 12.8749 9.75834 12.8749H11.625Z" stroke="url(#paint0_linear_2718_7531)" stroke-width="1.25" stroke-linecap="round" stroke-linejoin="round"/>
<defs>
<linearGradient id="paint0_linear_2718_7531" x1="1.66515" y1="16.5689" x2="14.9215" y2="31.4434" gradientUnits="userSpaceOnUse">
<stop stop-color="#8D2CFF"/>
<stop offset="0.465116" stop-color="#EE2F5D"/>
<stop offset="1" stop-color="#FF27D0"/>
</linearGradient>
</defs>
</svg>
